# Blender v2.79 (sub 0) OBJ File: 'barrel_0.blend'
# www.blender.org
mtllib barrel_0.mtl
o Cube
v -0.704879 -0.971472 0.704879
v -0.704879 0.963244 0.704879
v -0.704879 -0.971472 -0.704879
v -0.704879 0.963244 -0.704879
v 0.704879 -0.971472 0.704879
v 0.704879 0.963244 0.704879
v 0.704879 -0.971472 -0.704879
v 0.704879 0.963244 -0.704879
v -0.704879 -0.584528 0.704879
v -0.704879 -0.391057 0.704879
v -0.704879 0.382829 0.704879
v -0.704879 0.576301 0.704879
v -0.704879 0.576301 -0.704879
v -0.704879 0.382829 -0.704879
v -0.704879 -0.391057 -0.704879
v -0.704879 -0.584529 -0.704879
v 0.704879 0.576301 -0.704879
v 0.704879 0.382829 -0.704879
v 0.704879 -0.391057 -0.704879
v 0.704879 -0.584529 -0.704879
v 0.704879 0.576301 0.704879
v 0.704879 0.382829 0.704879
v 0.704879 -0.391057 0.704879
v 0.704879 -0.584529 0.704879
v -0.740123 0.377993 0.740123
v -0.740123 0.581138 0.740123
v -0.740123 0.581138 -0.740123
v -0.740123 0.377993 -0.740123
v 0.740123 0.581138 -0.740123
v 0.740123 0.377993 -0.740123
v 0.740123 0.581138 0.740123
v 0.740123 0.377993 0.740123
v -0.740123 -0.589365 0.740123
v -0.740123 -0.386220 0.740123
v -0.740123 -0.386220 -0.740123
v -0.740123 -0.589365 -0.740123
v 0.740123 -0.386220 -0.740123
v 0.740123 -0.589365 -0.740123
v 0.740123 -0.386220 0.740123
v 0.740123 -0.589365 0.740123
v 0.571718 0.963244 -0.571718
v 0.571718 0.963244 0.571718
v -0.571718 0.963244 -0.571718
v -0.571718 0.963244 0.571718
v 0.571718 0.854728 -0.571718
v 0.571718 0.854728 0.571718
v -0.571718 0.854728 -0.571718
v -0.571718 0.854728 0.571718
v 0.187876 0.918898 0.133887
v 0.187876 0.918898 -0.133887
v 0.455650 0.918898 0.133887
v 0.455650 0.918898 -0.133887
v 0.455650 0.838405 -0.133887
v 0.455650 0.838405 0.133887
v 0.187876 0.838405 -0.133887
v 0.187876 0.838405 0.133887
vt 0.625721 0.503944
vt 0.625721 0.583788
vt 0.334823 0.583789
vt 0.334823 0.503945
vt 0.320276 0.363983
vt 0.320276 0.443828
vt 0.029378 0.443828
vt 0.029378 0.363984
vt 0.625720 0.640389
vt 0.625721 0.800077
vt 0.334823 0.800078
vt 0.334822 0.640390
vt 0.625720 0.363982
vt 0.625720 0.443826
vt 0.334822 0.443827
vt 0.334822 0.363983
vt 0.964655 0.869380
vt 0.716509 0.869380
vt 0.716509 0.621233
vt 0.964655 0.621233
vt 0.029379 0.583790
vt 0.320277 0.583790
vt 0.327550 0.591131
vt 0.022106 0.591132
vt 0.320277 0.800079
vt 0.029379 0.800079
vt 0.029378 0.640391
vt 0.320277 0.640390
vt 0.320277 0.307383
vt 0.029378 0.307383
vt 0.029378 0.147695
vt 0.320276 0.147694
vt 0.625720 0.856678
vt 0.625721 0.936522
vt 0.334822 0.936523
vt 0.334822 0.856678
vt 0.327550 0.849338
vt 0.632994 0.849336
vt 0.362300 0.471304
vt 0.598243 0.471303
vt 0.334823 0.091093
vt 0.625721 0.091093
vt 0.632993 0.098433
vt 0.327549 0.098434
vt 0.625721 0.011248
vt 0.334822 0.011249
vt 0.292799 0.471305
vt 0.056855 0.471305
vt 0.320277 0.011250
vt 0.320277 0.091094
vt 0.029379 0.091094
vt 0.029378 0.011250
vt 0.320276 0.856679
vt 0.029378 0.856680
vt 0.022106 0.849339
vt 0.292799 0.964001
vt 0.056856 0.964002
vt 0.029379 0.936524
vt 0.320277 0.936523
vt 0.625721 0.307381
vt 0.334822 0.307382
vt 0.334822 0.147693
vt 0.625720 0.147693
vt 0.022105 0.098436
vt 0.327549 0.356642
vt 0.632993 0.356640
vt 0.327550 0.633049
vt 0.632994 0.633048
vt 0.320277 0.503946
vt 0.029379 0.503946
vt 0.022105 0.356643
vt 0.327549 0.314723
vt 0.022105 0.314725
vt 0.632993 0.314722
vt 0.327549 0.807419
vt 0.022106 0.807421
vt 0.632993 0.807418
vt 0.327550 0.140353
vt 0.022106 0.140354
vt 0.632994 0.140352
vt 0.022106 0.633050
vt 0.632993 0.591129
vt 0.292799 0.493697
vt 0.056855 0.493698
vt 0.598243 0.963999
vt 0.362300 0.964000
vt 0.961574 0.443871
vt 0.725630 0.443871
vt 0.725630 0.207927
vt 0.961574 0.207927
vt 0.598243 0.986392
vt 0.362298 0.986391
vt 0.292799 0.986392
vt 0.056857 0.986394
vt 0.598243 0.493696
vt 0.362300 0.493696
vt 0.733225 0.485954
vt 0.788479 0.485954
vt 0.788479 0.514680
vt 0.733225 0.514680
vt 0.843734 0.485954
vt 0.843734 0.514680
vt 0.898988 0.485954
vt 0.898988 0.514680
vt 0.954242 0.514680
vt 0.954242 0.569935
vt 0.898988 0.569935
vt 0.898988 0.514680
vt 0.954242 0.485954
vt 0.954242 0.514680
vn -1.0000 0.0000 0.0000
vn 0.0000 0.0000 1.0000
vn 1.0000 0.0000 0.0000
vn 0.0000 -1.0000 0.0000
vn 0.0000 -0.9907 0.1360
vn 0.0000 0.0000 -1.0000
vn 0.1360 0.9907 -0.0000
vn 0.0000 1.0000 0.0000
vn -0.1360 -0.9907 0.0000
vn 0.0000 0.9907 0.1360
vn -0.0000 -0.9907 -0.1360
vn -0.1360 0.9907 0.0000
vn 0.0000 0.9907 -0.1360
vn 0.1360 -0.9907 0.0000
usemtl Material.001
s off
f 1/1/1 9/2/1 16/3/1 3/4/1
f 21/5/2 6/6/2 2/7/2 12/8/2
f 10/9/1 11/10/1 14/11/1 15/12/1
f 17/13/3 8/14/3 6/15/3 21/16/3
f 3/17/4 7/18/4 5/19/4 1/20/4
f 20/21/5 16/22/5 36/23/5 38/24/5
f 14/25/6 18/26/6 19/27/6 15/28/6
f 22/29/2 11/30/2 10/31/2 23/32/2
f 12/33/1 2/34/1 4/35/1 13/36/1
f 12/33/7 13/36/7 27/37/7 26/38/7
f 42/39/8 6/15/8 8/14/8 41/40/8
f 24/41/9 20/42/9 38/43/9 40/44/9
f 7/45/3 20/42/3 24/41/3 5/46/3
f 2/7/8 6/6/8 42/47/8 44/48/8
f 5/49/2 24/50/2 9/51/2 1/52/2
f 13/53/10 17/54/10 29/55/10 27/37/10
f 43/56/8 41/57/8 8/58/8 4/59/8
f 18/60/3 22/61/3 23/62/3 19/63/3
f 9/51/11 24/50/11 40/44/11 33/64/11
f 17/13/12 21/16/12 31/65/12 29/66/12
f 13/53/6 4/59/6 8/58/6 17/54/6
f 10/9/7 15/12/7 35/67/7 34/68/7
f 3/69/6 16/22/6 20/21/6 7/70/6
f 21/5/13 12/8/13 26/71/13 31/65/13
f 32/72/2 31/65/2 26/71/2 25/73/2
f 30/74/3 29/66/3 31/65/3 32/72/3
f 28/75/6 27/37/6 29/55/6 30/76/6
f 25/77/1 26/38/1 27/37/1 28/75/1
f 11/30/11 22/29/11 32/72/11 25/73/11
f 22/61/9 18/60/9 30/74/9 32/72/9
f 18/26/5 14/25/5 28/75/5 30/76/5
f 14/11/14 11/10/14 25/77/14 28/75/14
f 40/44/2 39/78/2 34/79/2 33/64/2
f 38/43/3 37/80/3 39/78/3 40/44/3
f 36/23/6 35/67/6 37/81/6 38/24/6
f 33/82/1 34/68/1 35/67/1 36/23/1
f 16/3/14 9/2/14 33/82/14 36/23/14
f 23/32/13 10/31/13 34/79/13 39/78/13
f 19/63/12 23/62/12 39/78/12 37/80/12
f 15/28/10 19/27/10 37/81/10 35/67/10
f 44/48/6 42/47/6 46/83/6 48/84/6
f 2/34/8 44/85/8 43/86/8 4/35/8
f 45/87/8 47/88/8 48/89/8 46/90/8
f 43/86/3 44/85/3 48/91/3 47/92/3
f 41/57/2 43/56/2 47/93/2 45/94/2
f 42/39/1 41/40/1 45/95/1 46/96/1
f 56/97/2 54/98/2 51/99/2 49/100/2
f 54/98/3 53/101/3 52/102/3 51/99/3
f 53/101/6 55/103/6 50/104/6 52/102/6
f 52/105/8 50/106/8 49/107/8 51/108/8
f 55/103/1 56/109/1 49/110/1 50/104/1
