# Blender v2.79 (sub 0) OBJ File: ''
# www.blender.org
mtllib cardb_0.mtl
o Cube.001_Cube.002
v -0.500000 -0.531812 0.500000
v -0.500000 0.468188 0.500000
v -0.500000 0.468188 -0.500000
v -0.500000 -0.531812 -0.500000
v 0.500000 0.468188 -0.500000
v 0.500000 -0.531812 -0.500000
v 0.500000 0.468188 0.500000
v 0.500000 -0.531812 0.500000
v -0.500000 0.529051 0.008935
v 0.500000 0.529051 0.008935
v 0.500000 0.502314 0.026322
v -0.500000 0.502314 0.026322
vt 0.324742 0.739469
vt 0.564334 0.739469
vt 0.564334 0.979062
vt 0.324742 0.979062
vt 0.324742 0.020691
vt 0.564335 0.020691
vt 0.564335 0.260284
vt 0.324742 0.260284
vt 0.564335 0.499876
vt 0.324742 0.499876
vt 0.085149 0.260284
vt 0.085149 0.499876
vt 0.914876 0.732855
vt 0.675283 0.732862
vt 0.675279 0.610056
vt 0.914872 0.610049
vt 0.675283 0.790923
vt 0.914876 0.790931
vt 0.914872 0.904715
vt 0.675279 0.904707
vt 0.803927 0.260284
vt 0.803927 0.499876
vn -1.0000 -0.0000 0.0000
vn 0.0000 0.0000 -1.0000
vn 1.0000 0.0000 0.0000
vn 0.0000 -0.0000 1.0000
vn 0.0000 -1.0000 -0.0000
vn 0.0000 0.9929 -0.1187
vn 0.0000 0.9974 0.0719
vn 0.0000 1.0000 0.0000
usemtl None
s 1
f 1/1/1 2/2/1 3/3/1 4/4/1
f 4/5/2 3/6/2 5/7/2 6/8/2
f 6/8/3 5/7/3 7/9/3 8/10/3
f 8/10/4 7/9/4 2/2/4 1/1/4
f 4/11/5 6/8/5 8/10/5 1/12/5
f 5/13/6 3/14/6 9/15/6 10/16/6
f 2/17/7 7/18/7 11/19/7 12/20/7
f 7/9/8 5/7/8 3/21/8 2/22/8
