# Blender v2.79 (sub 0) OBJ File: 'cone.blend'
# www.blender.org
mtllib cone.mtl
o Cylinder.005_Cylinder.007
v 0.000000 -0.783521 -0.419104
v 0.000000 0.936555 -0.131571
v 0.065785 0.936555 -0.113944
v 0.209552 -0.783521 -0.362955
v 0.530720 -0.783521 0.530720
v 0.530720 -0.783521 -0.530720
v -0.209552 -0.783521 -0.362955
v 0.362955 -0.783521 -0.209552
v 0.419104 -0.783521 -0.000000
v 0.362955 -0.783521 0.209552
v 0.209552 -0.783521 0.362955
v 0.000000 -0.783521 0.419104
v -0.065786 0.936555 -0.113944
v -0.113944 0.936555 -0.065785
v -0.131571 0.936555 0.000000
v -0.113944 0.936555 0.065785
v -0.065785 0.936555 0.113944
v 0.000000 0.936555 0.131571
v 0.065785 0.936555 0.113944
v 0.113944 0.936555 0.065785
v 0.131571 0.936555 -0.000000
v 0.113944 0.936555 -0.065785
v -0.209552 -0.783521 0.362955
v -0.362955 -0.783521 0.209552
v -0.419104 -0.783521 0.000000
v -0.362955 -0.783521 -0.209552
v -0.530720 -0.783521 -0.530720
v -0.530720 -0.783521 0.530720
v 0.530720 -0.888291 -0.530720
v 0.530720 -0.888291 0.530720
v -0.530720 -0.888291 0.530720
v -0.530720 -0.888291 -0.530720
vt 0.379696 0.256165
vt 0.972104 0.256165
vt 0.972104 0.295561
vt 0.379696 0.295561
vt 0.138597 0.748656
vt 0.067531 0.559221
vt 0.154464 0.689522
vt 0.379696 0.216771
vt 0.972104 0.216771
vt 0.958396 0.592657
vt 0.949589 0.607911
vt 0.934336 0.616717
vt 0.916722 0.616717
vt 0.901469 0.607911
vt 0.892662 0.592657
vt 0.892662 0.575044
vt 0.901469 0.559790
vt 0.916722 0.550984
vt 0.934336 0.550984
vt 0.949589 0.559791
vt 0.958396 0.575044
vt 0.972104 0.334760
vt 0.379696 0.334760
vt 0.154423 0.807801
vt 0.067401 0.938041
vt 0.483612 0.938184
vt 0.446220 0.938172
vt 0.446351 0.559352
vt 0.483743 0.559365
vt 0.972104 0.373571
vt 0.379696 0.373571
vt 0.972104 0.411799
vt 0.379696 0.411799
vt 0.972104 0.449257
vt 0.379696 0.449257
vt 0.972104 0.485759
vt 0.379696 0.485759
vt 0.379696 0.177571
vt 0.972104 0.177571
vt 0.379696 0.138760
vt 0.972104 0.138760
vt 0.379696 0.100531
vt 0.972104 0.100531
vt 0.379696 0.063073
vt 0.972104 0.063073
vt 0.379696 0.026572
vt 0.972104 0.026572
vt 0.446364 0.521960
vt 0.067544 0.521830
vt 0.067388 0.975433
vt 0.446207 0.975563
vt 0.030140 0.559208
vt 0.030009 0.938028
vt 0.862431 0.938316
vt 0.862562 0.559496
vt 0.197772 0.646243
vt 0.256917 0.630417
vt 0.197701 0.851109
vt 0.256835 0.866976
vt 0.315980 0.851150
vt 0.359329 0.689592
vt 0.375155 0.748737
vt 0.316051 0.646284
vt 0.359288 0.807872
vn 0.2555 0.1594 -0.9536
vn 0.0000 1.0000 0.0000
vn -0.2555 0.1594 -0.9536
vn 0.6981 0.1594 -0.6981
vn 1.0000 0.0000 0.0000
vn 0.9536 0.1594 -0.2555
vn 0.9536 0.1594 0.2555
vn 0.6981 0.1594 0.6981
vn 0.2555 0.1594 0.9536
vn -0.6981 0.1594 -0.6981
vn -0.9536 0.1594 -0.2555
vn -0.9536 0.1594 0.2555
vn -0.6981 0.1594 0.6981
vn -0.2555 0.1594 0.9536
vn 0.0000 0.0000 1.0000
vn 0.0000 0.0000 -1.0000
vn -1.0000 0.0000 0.0000
vn 0.0000 -1.0000 0.0000
usemtl Material.014
s off
f 1/1/1 2/2/1 3/3/1 4/4/1
f 25/5/2 28/6/2 24/7/2
f 7/8/3 13/9/3 2/2/3 1/1/3
f 3/10/2 2/11/2 13/12/2 14/13/2 15/14/2 16/15/2 17/16/2 18/17/2 19/18/2 20/19/2 21/20/2 22/21/2
f 4/4/4 3/3/4 22/22/4 8/23/4
f 26/24/2 27/25/2 25/5/2
f 29/26/5 6/27/5 5/28/5 30/29/5
f 8/23/6 22/22/6 21/30/6 9/31/6
f 9/31/7 21/30/7 20/32/7 10/33/7
f 10/33/8 20/32/8 19/34/8 11/35/8
f 11/35/9 19/34/9 18/36/9 12/37/9
f 26/38/10 14/39/10 13/9/10 7/8/10
f 25/40/11 15/41/11 14/39/11 26/38/11
f 24/42/12 16/43/12 15/41/12 25/40/12
f 23/44/13 17/45/13 16/43/13 24/42/13
f 12/46/14 18/47/14 17/45/14 23/44/14
f 30/48/15 5/28/15 28/6/15 31/49/15
f 32/50/16 27/25/16 6/27/16 29/51/16
f 31/52/17 28/6/17 27/25/17 32/53/17
f 32/54/18 29/26/18 30/29/18 31/55/18
f 24/7/2 28/6/2 23/56/2
f 23/56/2 28/6/2 12/57/2
f 27/25/2 26/24/2 7/58/2
f 7/58/2 1/59/2 27/25/2
f 4/60/2 6/27/2 1/59/2
f 10/61/2 5/28/2 9/62/2
f 10/61/2 11/63/2 5/28/2
f 11/63/2 12/57/2 5/28/2
f 4/60/2 8/64/2 6/27/2
f 9/62/2 6/27/2 8/64/2
f 25/5/2 27/25/2 28/6/2
f 5/28/2 12/57/2 28/6/2
f 6/27/2 9/62/2 5/28/2
f 27/25/2 1/59/2 6/27/2
