# Blender v2.79 (sub 0) OBJ File: 'Door.blend'
# www.blender.org
mtllib door_0.mtl
o Torus.002
v 0.102414 -0.088302 -0.672438
v 0.102414 0.108537 -0.672438
v 0.102414 -0.088302 -0.869278
v 0.102414 0.108537 -0.869278
v 0.269737 -0.088302 -0.672438
v 0.269737 0.108537 -0.672438
v 0.269737 -0.088302 -0.869278
v 0.269737 0.108537 -0.869278
v 0.135953 -2.000025 1.000000
v 0.135953 -2.000025 -1.000000
v 0.135953 1.999975 1.000000
v 0.135952 1.999975 -1.000000
v 0.135953 0.209726 -0.200000
v 0.135953 -0.209776 -0.200000
v 0.135953 0.209726 0.200000
v 0.135953 -0.209776 0.200000
v 0.135953 1.733309 -0.200000
v 0.135953 1.733309 0.200000
v 0.135953 -1.733358 -0.200000
v 0.135953 -1.733358 0.200000
v 0.135953 0.209726 0.800000
v 0.135953 -0.209776 0.800000
v 0.135953 1.733309 0.800000
v 0.135953 -1.733358 0.800000
v 0.135953 0.209726 -0.800000
v 0.135953 -0.209776 -0.800000
v 0.135952 1.733309 -0.800000
v 0.135953 -1.733358 -0.800000
v 0.050323 0.209726 -0.200000
v 0.050323 -0.209776 -0.200000
v 0.050323 0.209726 0.200000
v 0.050323 -0.209776 0.200000
v 0.050323 0.209726 0.800000
v 0.050323 -0.209776 0.800000
v 0.050323 1.733309 -0.200000
v 0.050323 1.733309 0.200000
v 0.050323 1.733309 0.800000
v 0.050323 -1.733358 -0.200000
v 0.050323 -1.733358 0.200000
v 0.050323 -1.733358 0.800000
v 0.050323 0.209726 -0.800000
v 0.050323 -0.209776 -0.800000
v 0.050323 1.733309 -0.800000
v 0.050323 -1.733358 -0.800000
v -0.103597 -0.091994 -0.672438
v -0.103597 0.104846 -0.672438
v -0.103597 -0.091994 -0.869278
v -0.103598 0.104846 -0.869278
v -0.270920 -0.091994 -0.672438
v -0.270920 0.104846 -0.672438
v -0.270920 -0.091994 -0.869278
v -0.270920 0.104846 -0.869278
v -0.135952 -2.000025 1.000000
v -0.135952 -2.000025 -1.000000
v -0.135953 1.999975 1.000000
v -0.135953 1.999975 -1.000000
v -0.135953 0.209726 -0.200000
v -0.135953 -0.209776 -0.200000
v -0.135953 0.209726 0.200000
v -0.135953 -0.209776 0.200000
v -0.135953 1.733309 -0.200000
v -0.135953 1.733309 0.200000
v -0.135952 -1.733358 -0.200000
v -0.135952 -1.733358 0.200000
v -0.135953 0.209726 0.800000
v -0.135952 -0.209776 0.800000
v -0.135953 1.733309 0.800000
v -0.135952 -1.733358 0.800000
v -0.135953 0.209726 -0.800000
v -0.135953 -0.209776 -0.800000
v -0.135953 1.733309 -0.800000
v -0.135952 -1.733358 -0.800000
v -0.050323 0.209726 -0.200000
v -0.050323 -0.209776 -0.200000
v -0.050323 0.209726 0.200000
v -0.050323 -0.209776 0.200000
v -0.050323 0.209726 0.800000
v -0.050323 -0.209776 0.800000
v -0.050323 1.733309 -0.200000
v -0.050323 1.733309 0.200000
v -0.050323 1.733309 0.800000
v -0.050323 -1.733358 -0.200000
v -0.050323 -1.733358 0.200000
v -0.050323 -1.733358 0.800000
v -0.050323 0.209726 -0.800000
v -0.050323 -0.209776 -0.800000
v -0.050323 1.733309 -0.800000
v -0.050323 -1.733358 -0.800000
v 0.179600 -0.305460 -0.618086
v 0.179600 0.002788 -0.618086
v 0.179600 -0.305460 -0.926334
v 0.179600 0.002788 -0.926334
v 0.242937 -0.305460 -0.618086
v 0.242937 0.002788 -0.618086
v 0.242937 -0.305460 -0.926334
v 0.242937 0.002788 -0.926334
v 0.242937 -0.254085 -0.874960
v 0.242937 -0.254085 -0.669461
v 0.242937 -0.048586 -0.874960
v 0.242937 -0.048586 -0.669461
v 0.179600 -0.254085 -0.669461
v 0.179600 -0.254085 -0.874959
v 0.179600 -0.048586 -0.669461
v 0.179600 -0.048586 -0.874959
v -0.179600 -0.305460 -0.618086
v -0.179600 0.002788 -0.618086
v -0.179600 -0.305460 -0.926334
v -0.179600 0.002788 -0.926334
v -0.242937 -0.305460 -0.618086
v -0.242937 0.002788 -0.618086
v -0.242937 -0.305460 -0.926334
v -0.242937 0.002788 -0.926334
v -0.242937 -0.254085 -0.874959
v -0.242937 -0.254085 -0.669461
v -0.242937 -0.048586 -0.874959
v -0.242937 -0.048586 -0.669461
v -0.179600 -0.254085 -0.669461
v -0.179600 -0.254085 -0.874959
v -0.179600 -0.048586 -0.669461
v -0.179600 -0.048586 -0.874959
vt 0.352646 0.422313
vt 0.113016 0.422313
vt 0.071074 0.390856
vt 0.113016 0.516681
vt 0.113015 0.579594
vt 0.071074 0.705420
vt 0.836166 0.052897
vt 0.827993 0.052897
vt 0.827993 0.147267
vt 0.836166 0.147267
vt 0.634764 0.576883
vt 0.415783 0.576884
vt 0.415783 0.519392
vt 0.634764 0.519392
vt 0.811647 0.147270
vt 0.811648 0.052901
vt 0.803474 0.052901
vt 0.803474 0.147270
vt 0.355489 0.576884
vt 0.355489 0.519392
vt 0.658256 0.516682
vt 0.658256 0.422313
vt 0.700198 0.390857
vt 0.945850 0.553048
vt 0.906286 0.553048
vt 0.906286 0.519416
vt 0.945850 0.519416
vt 0.906286 0.479852
vt 0.945850 0.479852
vt 0.906286 0.446220
vt 0.945850 0.446220
vt 0.979482 0.519416
vt 0.979482 0.479852
vt 0.872654 0.519416
vt 0.872654 0.479852
vt 0.658256 0.673963
vt 0.658256 0.579594
vt 0.700198 0.705419
vt 0.418627 0.422313
vt 0.113016 0.673963
vt 0.415784 0.663121
vt 0.355489 0.663121
vt 0.136508 0.576884
vt 0.136508 0.519392
vt 0.811647 0.386902
vt 0.803474 0.386902
vt 0.803474 0.481271
vt 0.811647 0.481271
vt 0.418627 0.673963
vt 0.352646 0.673963
vt 0.700198 0.348092
vt 0.071074 0.348091
vt 0.787127 0.481269
vt 0.787127 0.720902
vt 0.778954 0.720902
vt 0.778954 0.481269
vt 0.836166 0.386899
vt 0.827993 0.386899
vt 0.836166 0.481267
vt 0.827993 0.481267
vt 0.739957 0.791799
vt 0.739924 0.886168
vt 0.500294 0.886086
vt 0.500326 0.791717
vt 0.827993 0.720901
vt 0.819820 0.720901
vt 0.819820 0.481268
vt 0.827993 0.481268
vt 0.819820 0.386899
vt 0.827993 0.386899
vt 0.979555 0.886168
vt 0.979555 0.980537
vt 0.739924 0.980537
vt 0.739924 0.886168
vt 0.787127 0.386900
vt 0.778954 0.386900
vt 0.778954 0.147271
vt 0.787127 0.147271
vt 0.836166 0.720896
vt 0.827993 0.720896
vt 0.260696 0.791717
vt 0.260663 0.886086
vt 0.021033 0.886003
vt 0.021065 0.791634
vt 0.355489 0.433155
vt 0.415784 0.433155
vt 0.827993 0.052901
vt 0.827993 0.147269
vt 0.819820 0.147269
vt 0.819820 0.052901
vt 0.260696 0.791717
vt 0.500326 0.791799
vt 0.500294 0.886168
vt 0.260663 0.886086
vt 0.787127 0.052903
vt 0.778954 0.052903
vt 0.803474 0.720900
vt 0.811647 0.720900
vt 0.028308 0.705420
vt 0.028308 0.390856
vt 0.700198 0.748184
vt 0.071074 0.748184
vt 0.352646 0.316635
vt 0.113016 0.316635
vt 0.113016 0.222266
vt 0.071074 0.033528
vt 0.113016 0.159354
vt 0.795300 0.052903
vt 0.795300 0.147271
vt 0.787127 0.147271
vt 0.787127 0.052903
vt 0.631654 0.162424
vt 0.631654 0.219197
vt 0.415407 0.219197
vt 0.415407 0.162424
vt 0.795301 0.147270
vt 0.803474 0.147270
vt 0.803474 0.052903
vt 0.795301 0.052903
vt 0.355865 0.219197
vt 0.355865 0.162423
vt 0.658256 0.222267
vt 0.658256 0.316635
vt 0.872654 0.635217
vt 0.906285 0.635217
vt 0.906285 0.674782
vt 0.872654 0.674782
vt 0.945850 0.635217
vt 0.945850 0.674782
vt 0.979482 0.635217
vt 0.979482 0.674782
vt 0.906286 0.601585
vt 0.945850 0.601585
vt 0.945850 0.708413
vt 0.906285 0.708413
vt 0.658256 0.064986
vt 0.700198 0.033530
vt 0.658256 0.159354
vt 0.418626 0.316635
vt 0.113016 0.064985
vt 0.355865 0.077263
vt 0.415408 0.077263
vt 0.139618 0.219197
vt 0.139618 0.162423
vt 0.795301 0.386900
vt 0.795300 0.481269
vt 0.803474 0.481269
vt 0.803474 0.386900
vt 0.418627 0.064985
vt 0.352646 0.064985
vt 0.811647 0.481269
vt 0.819820 0.481269
vt 0.819820 0.720898
vt 0.811647 0.720898
vt 0.795300 0.386900
vt 0.787127 0.386900
vt 0.795300 0.481269
vt 0.787127 0.481269
vt 0.979555 0.886168
vt 0.739924 0.886168
vt 0.739924 0.791800
vt 0.979555 0.791800
vt 0.836167 0.720896
vt 0.836167 0.481267
vt 0.844340 0.481267
vt 0.844340 0.720896
vt 0.836167 0.386899
vt 0.844340 0.386899
vt 0.260663 0.980454
vt 0.021033 0.980454
vt 0.021033 0.886086
vt 0.260663 0.886086
vt 0.811647 0.386901
vt 0.811647 0.147269
vt 0.819820 0.147269
vt 0.819820 0.386901
vt 0.795300 0.720902
vt 0.787127 0.720902
vt 0.500294 0.980454
vt 0.260663 0.980454
vt 0.260663 0.886086
vt 0.500294 0.886086
vt 0.415407 0.304357
vt 0.355865 0.304357
vt 0.836166 0.052897
vt 0.844340 0.052897
vt 0.844339 0.147267
vt 0.836166 0.147267
vt 0.500294 0.980454
vt 0.500294 0.886086
vt 0.739924 0.886086
vt 0.739924 0.980454
vt 0.811647 0.052899
vt 0.819820 0.052899
vt 0.795300 0.720902
vt 0.803474 0.720902
vt 0.946963 0.242035
vt 0.946963 0.181455
vt 0.959410 0.181455
vt 0.959410 0.242035
vt 0.959410 0.302615
vt 0.959410 0.363195
vt 0.946963 0.363195
vt 0.946963 0.302615
vt 0.946963 0.120875
vt 0.959410 0.120875
vt 0.981955 0.353098
vt 0.969507 0.353098
vt 0.969507 0.312712
vt 0.981955 0.312712
vt 0.981955 0.252132
vt 0.981955 0.292518
vt 0.969507 0.292518
vt 0.969507 0.252132
vt 0.969507 0.171358
vt 0.969507 0.130972
vt 0.969507 0.191552
vt 0.969507 0.231938
vt 0.936866 0.130972
vt 0.936866 0.171358
vt 0.936866 0.231938
vt 0.936866 0.191552
vt 0.936866 0.252132
vt 0.936866 0.292518
vt 0.936866 0.353098
vt 0.936866 0.312712
vt 0.981955 0.231938
vt 0.981955 0.191552
vt 0.981955 0.130972
vt 0.981955 0.171358
vt 0.908215 0.242035
vt 0.895767 0.242035
vt 0.895767 0.181455
vt 0.908214 0.181455
vt 0.895767 0.302615
vt 0.908214 0.302615
vt 0.908214 0.363195
vt 0.895767 0.363195
vt 0.895767 0.120875
vt 0.908214 0.120875
vt 0.873222 0.353098
vt 0.873222 0.312711
vt 0.885670 0.312711
vt 0.885670 0.353098
vt 0.873223 0.252132
vt 0.885670 0.252132
vt 0.885670 0.292518
vt 0.873222 0.292518
vt 0.885670 0.171358
vt 0.885670 0.130972
vt 0.885670 0.191552
vt 0.885670 0.231938
vt 0.918311 0.130972
vt 0.918311 0.171358
vt 0.918311 0.231938
vt 0.918311 0.191552
vt 0.918311 0.252132
vt 0.918311 0.292518
vt 0.918311 0.353098
vt 0.918311 0.312711
vt 0.873223 0.231938
vt 0.873222 0.191552
vt 0.873222 0.130972
vt 0.873222 0.171358
vt 0.742963 0.390857
vt 0.742963 0.705419
vn 1.0000 0.0000 -0.0000
vn 0.0000 -1.0000 0.0000
vn -0.0000 1.0000 0.0000
vn -0.0000 -0.0000 -1.0000
vn 0.0000 0.0000 1.0000
vn -1.0000 -0.0000 0.0000
usemtl Material.004
s off
f 21/1/1 23/2/1 11/3/1
f 18/4/1 17/5/1 12/6/1 11/3/1
f 14/7/2 30/8/2 42/9/2 26/10/2
f 19/11/1 14/12/1 16/13/1 20/14/1
f 21/15/3 15/16/3 31/17/3 33/18/3
f 16/13/1 14/12/1 13/19/1 15/20/1
f 20/21/1 24/22/1 9/23/1
f 3/24/4 4/25/4 8/26/4 7/27/4
f 7/27/1 8/26/1 6/28/1 5/29/1
f 5/29/5 6/28/5 2/30/5 1/31/5
f 3/32/2 7/27/2 5/29/2 1/33/2
f 8/26/3 4/34/3 2/35/3 6/28/3
f 28/36/1 19/37/1 10/38/1
f 22/39/1 21/1/1 11/3/1 9/23/1
f 12/6/1 17/5/1 27/40/1
f 14/12/1 26/41/1 25/42/1 13/19/1
f 13/19/1 17/43/1 18/44/1 15/20/1
f 11/3/1 23/2/1 18/4/1
f 23/45/2 37/46/2 36/47/2 18/48/2
f 26/49/1 10/38/1 12/6/1 25/50/1
f 53/51/5 9/23/5 11/3/5 55/52/5
f 27/40/1 25/50/1 12/6/1
f 23/45/4 21/15/4 33/18/4 37/46/4
f 17/53/4 13/54/4 29/55/4 35/56/4
f 28/57/5 26/10/5 42/9/5 44/58/5
f 19/59/3 28/57/3 44/58/3 38/60/3
f 29/61/1 41/62/1 43/63/1 35/64/1
f 16/65/5 32/66/5 39/67/5 20/68/5
f 20/68/3 39/67/3 40/69/3 24/70/3
f 38/71/1 44/72/1 42/73/1 30/74/1
f 27/75/5 43/76/5 41/77/5 25/78/5
f 27/75/2 17/53/2 35/56/2 43/76/2
f 14/79/4 19/59/4 38/60/4 30/80/4
f 40/81/1 39/82/1 32/83/1 34/84/1
f 15/20/1 21/85/1 22/86/1 16/13/1
f 16/87/2 22/88/2 34/89/2 32/90/2
f 37/91/1 33/92/1 31/93/1 36/94/1
f 24/70/4 40/69/4 34/89/4 22/88/4
f 13/95/3 25/78/3 41/77/3 29/96/3
f 18/48/5 36/47/5 31/97/5 15/98/5
f 19/37/1 20/21/1 9/23/1 10/38/1
f 9/23/1 24/22/1 22/39/1
f 10/38/1 26/49/1 28/36/1
f 12/6/3 56/99/3 55/100/3 11/3/3
f 10/38/4 54/101/4 56/102/4 12/6/4
f 65/103/6 55/52/6 67/104/6
f 62/105/6 55/52/6 56/106/6 61/107/6
f 58/108/2 70/109/2 86/110/2 74/111/2
f 63/112/6 64/113/6 60/114/6 58/115/6
f 65/116/3 77/117/3 75/118/3 59/119/3
f 60/114/6 59/120/6 57/121/6 58/115/6
f 64/122/6 53/51/6 68/123/6
f 47/124/4 51/125/4 52/126/4 48/127/4
f 51/125/6 49/128/6 50/129/6 52/126/6
f 49/128/5 45/130/5 46/131/5 50/129/5
f 47/132/2 45/133/2 49/128/2 51/125/2
f 52/126/3 50/129/3 46/134/3 48/135/3
f 72/136/6 54/137/6 63/138/6
f 66/139/6 53/51/6 55/52/6 65/103/6
f 56/106/6 71/140/6 61/107/6
f 58/115/6 57/121/6 69/141/6 70/142/6
f 57/121/6 59/120/6 62/143/6 61/144/6
f 55/52/6 62/105/6 67/104/6
f 67/145/2 62/146/2 80/147/2 81/148/2
f 70/149/6 69/150/6 56/106/6 54/137/6
f 71/140/6 56/106/6 69/150/6
f 67/145/4 81/148/4 77/117/4 65/116/4
f 61/151/4 79/152/4 73/153/4 57/154/4
f 72/155/5 88/156/5 86/110/5 70/109/5
f 63/157/3 82/158/3 88/156/3 72/155/3
f 73/159/6 79/160/6 87/161/6 85/162/6
f 60/163/5 64/164/5 83/165/5 76/166/5
f 64/164/3 68/167/3 84/168/3 83/165/3
f 82/169/6 74/170/6 86/171/6 88/172/6
f 71/173/5 69/174/5 85/175/5 87/176/5
f 71/173/2 87/176/2 79/152/2 61/151/2
f 58/177/4 74/178/4 82/158/4 63/157/4
f 84/179/6 78/180/6 76/181/6 83/182/6
f 59/120/6 60/114/6 66/183/6 65/184/6
f 60/185/2 76/186/2 78/187/2 66/188/2
f 81/189/6 80/190/6 75/191/6 77/192/6
f 68/167/4 66/188/4 78/187/4 84/168/4
f 57/193/3 73/194/3 85/175/3 69/174/3
f 62/146/5 59/195/5 75/196/5 80/147/5
f 63/138/6 54/137/6 53/51/6 64/122/6
f 53/51/6 66/139/6 68/123/6
f 54/137/6 72/136/6 70/149/6
f 91/197/4 92/198/4 96/199/4 95/200/4
f 93/201/5 94/202/5 90/203/5 89/204/5
f 91/197/2 95/200/2 93/201/2 89/204/2
f 96/199/3 92/198/3 90/205/3 94/206/3
f 103/207/4 100/208/4 98/209/4 101/210/4
f 102/211/3 101/212/3 98/213/3 97/214/3
f 99/215/1 96/199/1 94/206/1 100/216/1
f 98/209/1 100/208/1 94/202/1 93/201/1
f 98/213/1 93/201/1 95/200/1 97/214/1
f 99/217/1 97/218/1 95/200/1 96/199/1
f 103/219/6 90/205/6 92/198/6 104/220/6
f 102/221/6 104/222/6 92/198/6 91/197/6
f 102/223/6 91/197/6 89/204/6 101/224/6
f 103/225/6 101/226/6 89/204/6 90/203/6
f 102/227/5 97/218/5 99/217/5 104/228/5
f 103/229/2 104/230/2 99/215/2 100/216/2
f 107/231/4 111/232/4 112/233/4 108/234/4
f 109/235/5 105/236/5 106/237/5 110/238/5
f 107/231/2 105/236/2 109/235/2 111/232/2
f 112/233/3 110/239/3 106/240/3 108/234/3
f 119/241/4 117/242/4 114/243/4 116/244/4
f 118/245/3 113/246/3 114/247/3 117/248/3
f 115/249/6 116/250/6 110/239/6 112/233/6
f 114/243/6 109/235/6 110/238/6 116/244/6
f 114/247/6 113/246/6 111/232/6 109/235/6
f 115/251/6 112/233/6 111/232/6 113/252/6
f 119/253/1 120/254/1 108/234/1 106/240/1
f 118/255/1 107/231/1 108/234/1 120/256/1
f 118/257/1 117/258/1 105/236/1 107/231/1
f 119/259/1 106/237/1 105/236/1 117/260/1
f 118/261/5 120/262/5 115/251/5 113/252/5
f 119/263/2 116/250/2 115/249/2 120/264/2
f 53/265/2 54/266/2 10/38/2 9/23/2
