# Blender v2.79 (sub 0) OBJ File: 'Teddylow.blend'
# www.blender.org
mtllib teddy_0.mtl
o Cube
v -0.282087 -0.297581 -0.203855
v -0.282087 0.081502 -0.203855
v 0.038005 -0.297581 -0.203855
v 0.038005 0.081502 -0.203855
v -0.282087 -0.297581 0.203855
v -0.282087 0.081502 0.203855
v 0.038005 -0.297581 0.203855
v 0.038005 0.081502 0.203855
v 0.047222 0.255809 0.038303
v 0.047222 0.358119 0.038303
v 0.066969 0.255809 0.038303
v 0.066969 0.358119 0.038303
v 0.047222 0.255809 0.103218
v 0.047222 0.358119 0.103218
v 0.066969 0.255809 0.103218
v 0.066969 0.358119 0.103218
v 0.047222 0.255809 -0.038303
v 0.047222 0.358119 -0.038303
v 0.066969 0.255809 -0.038303
v 0.066969 0.358119 -0.038303
v 0.047222 0.255809 -0.103218
v 0.047222 0.358119 -0.103218
v 0.066969 0.255809 -0.103218
v 0.066969 0.358119 -0.103218
v -0.261410 -0.115592 0.178994
v -0.261410 0.087335 0.178994
v 0.194755 -0.093996 0.200590
v 0.194755 0.065739 0.200590
v -0.261410 -0.115592 0.322018
v -0.261410 0.087335 0.322018
v 0.194755 -0.093996 0.360325
v 0.194755 0.065739 0.360325
v 0.096176 -0.115592 0.178994
v 0.096176 0.087335 0.178994
v 0.096176 -0.115592 0.381921
v 0.096176 0.087335 0.381921
v -0.082617 0.087335 0.381921
v -0.082617 -0.115592 0.381921
v -0.261410 -0.115592 -0.178994
v -0.261410 0.087335 -0.178994
v 0.194755 -0.093996 -0.200590
v 0.194755 0.065740 -0.200590
v -0.261410 -0.115592 -0.322018
v -0.261410 0.087336 -0.322018
v 0.194755 -0.093996 -0.360325
v 0.194755 0.065740 -0.360325
v 0.096176 -0.115592 -0.178994
v 0.096176 0.087335 -0.178994
v 0.096176 -0.115592 -0.381921
v 0.096176 0.087335 -0.381921
v -0.082617 0.087336 -0.381921
v -0.082617 -0.115592 -0.381921
v -0.093137 0.275471 0.314847
v -0.093137 0.488472 0.314847
v -0.093137 0.275471 0.124812
v -0.093137 0.488472 0.124812
v -0.023988 0.275471 0.314847
v -0.023988 0.488472 0.314847
v -0.023988 0.275471 0.124812
v -0.023988 0.488472 0.124812
v -0.093137 0.275471 -0.314847
v -0.093137 0.488472 -0.314847
v -0.093137 0.275471 -0.124812
v -0.093137 0.488472 -0.124812
v -0.023988 0.275471 -0.314847
v -0.023988 0.488472 -0.314847
v -0.023988 0.275471 -0.124812
v -0.023988 0.488472 -0.124812
v 0.019250 0.106053 0.089156
v 0.019250 0.227504 0.089156
v 0.019250 0.106053 -0.089156
v 0.019250 0.227504 -0.089156
v 0.096998 0.106053 0.089156
v 0.096998 0.227504 0.089156
v 0.096998 0.106053 -0.089156
v 0.096998 0.227504 -0.089156
v -0.293216 0.077368 0.171760
v -0.293216 0.420888 0.171760
v -0.293216 0.077368 -0.171760
v -0.293216 0.420888 -0.171760
v 0.050304 0.077368 0.171760
v 0.050304 0.420888 0.171760
v 0.050304 0.077368 -0.171760
v 0.050304 0.420888 -0.171760
v -0.269277 -0.479915 0.033849
v -0.269277 -0.253453 0.033849
v 0.287839 -0.479915 0.033849
v 0.287839 -0.239663 0.033849
v -0.269277 -0.479915 0.229176
v -0.269277 -0.253454 0.229176
v 0.287839 -0.479915 0.274101
v 0.287839 -0.239663 0.274101
v 0.202826 -0.479915 0.033849
v 0.202826 -0.239663 0.033849
v 0.202826 -0.479915 0.274101
v 0.202826 -0.239663 0.274101
v 0.172545 -0.479915 0.033849
v 0.172545 -0.253454 0.274101
v 0.172545 -0.253454 0.033849
v 0.172545 -0.479915 0.274101
v -0.023922 -0.253454 0.274101
v -0.023922 -0.479915 0.274101
v -0.269277 -0.479915 -0.033849
v -0.269277 -0.253453 -0.033849
v 0.287839 -0.479915 -0.033849
v 0.287839 -0.239663 -0.033849
v -0.269277 -0.479914 -0.229176
v -0.269277 -0.253453 -0.229176
v 0.287839 -0.479915 -0.274101
v 0.287839 -0.239663 -0.274101
v 0.202826 -0.479915 -0.033849
v 0.202826 -0.239663 -0.033849
v 0.202826 -0.479915 -0.274101
v 0.202826 -0.239663 -0.274101
v 0.172545 -0.479915 -0.033849
v 0.172545 -0.253454 -0.274101
v 0.172545 -0.253454 -0.033849
v 0.172545 -0.479915 -0.274101
v -0.023922 -0.253453 -0.274101
v -0.023922 -0.479915 -0.274101
vt 0.421687 0.406428
vt 0.421687 0.574116
vt 0.302193 0.574116
vt 0.302193 0.406428
vt 0.149990 0.574116
vt 0.149990 0.406428
vt 0.030496 0.574116
vt 0.030496 0.406428
vt 0.149990 0.861298
vt 0.149990 0.693610
vt 0.302193 0.693610
vt 0.302193 0.861298
vt 0.149990 0.286934
vt 0.302193 0.286934
vt 0.116653 0.679996
vt 0.116653 0.760169
vt 0.101178 0.760169
vt 0.101178 0.679996
vt 0.050309 0.760169
vt 0.050309 0.679996
vt 0.034834 0.760169
vt 0.034834 0.679996
vt 0.050309 0.664521
vt 0.101178 0.664521
vt 0.101178 0.775644
vt 0.050309 0.775644
vt 0.116653 0.916213
vt 0.101178 0.916213
vt 0.101178 0.836040
vt 0.116653 0.836040
vt 0.050309 0.916213
vt 0.050309 0.836040
vt 0.034834 0.916213
vt 0.034834 0.836040
vt 0.101178 0.931688
vt 0.050309 0.931688
vt 0.050309 0.820566
vt 0.101178 0.820566
vt 0.276197 0.107739
vt 0.210139 0.107739
vt 0.217169 0.074888
vt 0.269167 0.074888
vt 0.085054 0.022890
vt 0.137051 0.022890
vt 0.137051 0.074888
vt 0.085054 0.074888
vt 0.078024 0.165940
vt 0.144081 0.165940
vt 0.144081 0.227321
vt 0.078024 0.227321
vt 0.144081 0.273879
vt 0.078024 0.273879
vt 0.011966 0.107739
vt 0.078024 0.107739
vt 0.011966 0.224142
vt 0.151111 0.074888
vt 0.203109 0.074888
vt 0.144081 0.107739
vt 0.018996 0.074888
vt 0.070994 0.074888
vt 0.210139 0.224142
vt 0.058524 0.224142
vt 0.163581 0.224142
vt 0.276197 0.224142
vt 0.294799 0.107739
vt 0.301829 0.074888
vt 0.353827 0.074888
vt 0.360857 0.107739
vt 0.485942 0.022890
vt 0.485942 0.074888
vt 0.433945 0.074888
vt 0.433945 0.022890
vt 0.492972 0.165940
vt 0.492972 0.227321
vt 0.426915 0.227321
vt 0.426915 0.165940
vt 0.492972 0.273879
vt 0.426915 0.273879
vt 0.559030 0.107739
vt 0.559030 0.224142
vt 0.492972 0.107739
vt 0.419885 0.074888
vt 0.426915 0.107739
vt 0.367887 0.074888
vt 0.552000 0.074888
vt 0.500002 0.074888
vt 0.360857 0.224142
vt 0.512472 0.224142
vt 0.407415 0.224142
vt 0.294799 0.224142
vt 0.585232 0.544332
vt 0.585232 0.464816
vt 0.656174 0.464816
vt 0.656174 0.544332
vt 0.681988 0.359487
vt 0.681988 0.439003
vt 0.656174 0.439002
vt 0.656174 0.359487
vt 0.585232 0.439003
vt 0.585232 0.359487
vt 0.559418 0.439003
vt 0.559418 0.359487
vt 0.656174 0.333673
vt 0.585232 0.333673
vt 0.465776 0.353799
vt 0.536718 0.353799
vt 0.536718 0.433315
vt 0.465776 0.433315
vt 0.562532 0.538644
vt 0.536718 0.538644
vt 0.536718 0.459129
vt 0.562532 0.459129
vt 0.465776 0.538645
vt 0.465776 0.459129
vt 0.439962 0.538644
vt 0.439962 0.459129
vt 0.536718 0.564458
vt 0.465776 0.564458
vt 0.325873 0.358001
vt 0.325873 0.312662
vt 0.354898 0.312662
vt 0.354898 0.358001
vt 0.421463 0.312662
vt 0.421463 0.358001
vt 0.450487 0.312662
vt 0.450487 0.358001
vt 0.354898 0.387025
vt 0.421463 0.387025
vt 0.354898 0.283638
vt 0.421463 0.283638
vt 0.713690 0.560373
vt 0.713690 0.432133
vt 0.841929 0.432133
vt 0.841929 0.560373
vt 0.970169 0.175654
vt 0.970169 0.303894
vt 0.841929 0.303894
vt 0.841929 0.175654
vt 0.713690 0.303894
vt 0.713690 0.175654
vt 0.585450 0.303894
vt 0.585450 0.175654
vt 0.841929 0.047414
vt 0.713690 0.047414
vt 0.516242 0.683798
vt 0.516276 0.584144
vt 0.551539 0.584156
vt 0.551504 0.683810
vt 0.651055 0.982806
vt 0.551401 0.982772
vt 0.551436 0.883118
vt 0.651089 0.883152
vt 0.422155 0.783419
vt 0.422122 0.877353
vt 0.338527 0.877324
vt 0.338559 0.783391
vt 0.245447 0.901647
vt 0.339381 0.901679
vt 0.339353 0.982699
vt 0.245419 0.982666
vt 0.503681 0.683794
vt 0.503647 0.783448
vt 0.340697 0.683737
vt 0.516138 0.982760
vt 0.516173 0.883106
vt 0.551470 0.783464
vt 0.516207 0.783452
vt 0.503714 0.589860
vt 0.502371 0.883101
vt 0.502337 0.982755
vt 0.420879 0.883073
vt 0.503615 0.877381
vt 0.340669 0.764757
vt 0.340729 0.589804
vt 0.846330 0.887335
vt 0.881593 0.887335
vt 0.881593 0.986989
vt 0.846330 0.986989
vt 0.981247 0.588374
vt 0.981247 0.688027
vt 0.881593 0.688028
vt 0.881593 0.588374
vt 0.752278 0.787681
vt 0.668682 0.787682
vt 0.668682 0.693748
vt 0.752278 0.693748
vt 0.575611 0.669393
vt 0.575611 0.588374
vt 0.669544 0.588374
vt 0.669544 0.669393
vt 0.833770 0.887335
vt 0.670786 0.887335
vt 0.833770 0.787681
vt 0.846330 0.688028
vt 0.846330 0.588374
vt 0.846330 0.787681
vt 0.881593 0.787681
vt 0.833770 0.981269
vt 0.832529 0.688028
vt 0.751037 0.688028
vt 0.832529 0.588374
vt 0.833770 0.693748
vt 0.670786 0.806316
vt 0.670786 0.981269
vn 0.0000 0.0000 -1.0000
vn 1.0000 -0.0000 0.0000
vn 0.0000 -0.0000 1.0000
vn -1.0000 0.0000 -0.0000
vn -0.0000 -1.0000 -0.0000
vn 0.0000 1.0000 0.0000
vn 0.2140 0.0000 -0.9768
vn -0.3177 -0.0000 0.9482
vn 0.2140 0.9768 0.0000
vn 0.2140 -0.9768 -0.0000
vn 0.2140 -0.0000 0.9768
vn -0.3177 0.0000 -0.9482
vn -0.1801 -0.0000 0.9836
vn -0.4145 0.9101 0.0000
vn -0.1801 0.0000 -0.9836
usemtl None
s off
f 1/1/1 2/2/1 4/3/1 3/4/1
f 3/4/2 4/3/2 8/5/2 7/6/2
f 7/6/3 8/5/3 6/7/3 5/8/3
f 5/9/4 6/10/4 2/11/4 1/12/4
f 3/4/5 7/6/5 5/13/5 1/14/5
f 8/5/6 4/3/6 2/11/6 6/10/6
f 9/15/1 10/16/1 12/17/1 11/18/1
f 11/18/2 12/17/2 16/19/2 15/20/2
f 15/20/3 16/19/3 14/21/3 13/22/3
f 11/18/5 15/20/5 13/23/5 9/24/5
f 16/19/6 12/17/6 10/25/6 14/26/6
f 17/27/3 19/28/3 20/29/3 18/30/3
f 19/28/2 23/31/2 24/32/2 20/29/2
f 23/31/1 21/33/1 22/34/1 24/32/1
f 19/28/5 17/35/5 21/36/5 23/31/5
f 24/32/6 22/37/6 18/38/6 20/29/6
f 33/39/7 34/40/7 28/41/7 27/42/7
f 27/43/2 28/44/2 32/45/2 31/46/2
f 38/47/8 37/48/8 30/49/8 29/50/8
f 29/50/4 30/49/4 26/51/4 25/52/4
f 33/53/5 35/54/5 38/47/5 25/55/5
f 32/56/9 28/57/9 34/40/9 36/58/9
f 27/59/10 31/60/10 35/54/10 33/53/10
f 31/46/11 32/45/11 36/58/11 35/54/11
f 36/58/6 34/40/6 26/61/6 37/48/6
f 25/55/5 38/47/5 29/62/5
f 37/48/6 26/61/6 30/63/6
f 35/54/3 36/58/3 37/48/3 38/47/3
f 25/64/1 26/61/1 34/40/1 33/39/1
f 47/65/11 41/66/11 42/67/11 48/68/11
f 41/69/2 45/70/2 46/71/2 42/72/2
f 52/73/12 43/74/12 44/75/12 51/76/12
f 43/74/4 39/77/4 40/78/4 44/75/4
f 47/79/5 39/80/5 52/73/5 49/81/5
f 46/82/9 50/83/9 48/68/9 42/84/9
f 41/85/10 47/79/10 49/81/10 45/86/10
f 45/70/7 49/81/7 50/83/7 46/71/7
f 50/83/6 51/76/6 40/87/6 48/68/6
f 39/80/5 43/88/5 52/73/5
f 51/76/6 44/89/6 40/87/6
f 49/81/1 52/73/1 51/76/1 50/83/1
f 39/90/3 47/65/3 48/68/3 40/87/3
f 53/91/4 54/92/4 56/93/4 55/94/4
f 55/95/1 56/96/1 60/97/1 59/98/1
f 59/98/2 60/97/2 58/99/2 57/100/2
f 57/100/3 58/99/3 54/101/3 53/102/3
f 55/103/5 59/98/5 57/100/5 53/104/5
f 60/97/6 56/93/6 54/92/6 58/99/6
f 61/105/4 63/106/4 64/107/4 62/108/4
f 63/109/3 67/110/3 68/111/3 64/112/3
f 67/110/2 65/113/2 66/114/2 68/111/2
f 65/113/1 61/115/1 62/116/1 66/114/1
f 63/117/5 61/118/5 65/113/5 67/110/5
f 68/111/6 66/114/6 62/108/6 64/107/6
f 71/119/1 72/120/1 76/121/1 75/122/1
f 75/122/2 76/121/2 74/123/2 73/124/2
f 73/124/3 74/123/3 70/125/3 69/126/3
f 71/127/5 75/122/5 73/124/5 69/128/5
f 76/121/6 72/129/6 70/130/6 74/123/6
f 77/131/4 78/132/4 80/133/4 79/134/4
f 79/135/1 80/136/1 84/137/1 83/138/1
f 83/138/2 84/137/2 82/139/2 81/140/2
f 81/140/3 82/139/3 78/141/3 77/142/3
f 79/143/5 83/138/5 81/140/5 77/144/5
f 84/137/6 80/133/6 78/132/6 82/139/6
f 93/145/1 94/146/1 88/147/1 87/148/1
f 87/149/2 88/150/2 92/151/2 91/152/2
f 102/153/13 101/154/13 90/155/13 89/156/13
f 89/157/4 90/158/4 86/159/4 85/160/4
f 97/161/5 100/162/5 102/153/5 85/163/5
f 92/151/6 88/150/6 94/164/6 96/165/6
f 87/148/5 91/166/5 95/167/5 93/145/5
f 91/166/3 92/151/3 96/165/3 95/167/3
f 97/161/1 99/168/1 94/146/1 93/145/1
f 98/169/6 99/170/6 86/159/6 101/171/6
f 96/165/14 94/164/14 99/170/14 98/169/14
f 93/145/5 95/167/5 100/162/5 97/161/5
f 95/167/3 96/165/3 98/172/3 100/162/3
f 85/163/5 102/153/5 89/173/5
f 101/171/6 86/159/6 90/158/6
f 100/162/3 98/172/3 101/154/3 102/153/3
f 85/163/1 86/174/1 99/168/1 97/161/1
f 111/175/3 105/176/3 106/177/3 112/178/3
f 105/179/2 109/180/2 110/181/2 106/182/2
f 120/183/15 107/184/15 108/185/15 119/186/15
f 107/187/4 103/188/4 104/189/4 108/190/4
f 115/191/5 103/192/5 120/183/5 118/193/5
f 110/181/6 114/194/6 112/195/6 106/182/6
f 105/176/5 111/175/5 113/196/5 109/197/5
f 109/197/1 113/196/1 114/194/1 110/181/1
f 115/191/3 111/175/3 112/178/3 117/198/3
f 116/199/6 119/200/6 104/189/6 117/201/6
f 114/194/14 116/199/14 117/201/14 112/195/14
f 111/175/5 115/191/5 118/193/5 113/196/5
f 113/196/1 118/193/1 116/202/1 114/194/1
f 103/192/5 107/203/5 120/183/5
f 119/200/6 108/190/6 104/189/6
f 118/193/1 120/183/1 119/186/1 116/202/1
f 103/192/3 115/191/3 117/198/3 104/204/3
