# Blender v2.79 (sub 0) OBJ File: 'window.blend'
# www.blender.org
mtllib window_0.mtl
o Cube
v 0.061619 -1.124417 -1.124415
v 0.061619 -1.124417 1.124417
v -0.138381 -1.124417 1.124416
v -0.138381 -1.124417 -1.124416
v 0.061619 1.124415 -1.124415
v 0.061619 1.124415 1.124417
v -0.138381 1.124415 1.124416
v -0.138381 1.124415 -1.124416
v -0.138381 -1.447722 1.447721
v -0.138381 -1.447722 -1.447721
v -0.138381 1.447720 1.447721
v -0.138381 1.447720 -1.447721
v 0.061619 -0.070001 0.070001
v 0.061619 0.069999 0.070001
v 0.061619 -0.070001 -0.069999
v 0.061619 0.069999 -0.069999
v 0.061619 -0.070001 0.900001
v 0.061619 0.069999 0.900001
v 0.061619 -0.900001 0.070000
v 0.061619 -0.900001 -0.070000
v 0.061619 -0.900001 0.900000
v 0.061619 -0.070001 -0.899999
v 0.061619 0.069999 -0.899999
v 0.061619 -0.900001 -0.900000
v 0.061619 0.899999 0.070001
v 0.061619 0.899999 -0.069999
v 0.061619 0.899999 0.900001
v 0.061619 0.899999 -0.899999
v -0.130095 -0.070001 0.070001
v -0.130095 0.069999 0.070001
v -0.130095 -0.070001 -0.069999
v -0.130095 0.069999 -0.069999
v -0.130095 -0.070001 0.900001
v -0.130095 0.069999 0.900001
v -0.130095 -0.900001 0.070000
v -0.130095 -0.900001 -0.070000
v -0.130095 -0.900001 0.900000
v -0.130095 -0.070001 -0.899999
v -0.130095 0.069999 -0.899999
v -0.130095 -0.900001 -0.900000
v -0.130095 0.899999 0.070001
v -0.130095 0.899999 -0.069999
v -0.130095 0.899999 0.900001
v -0.130095 0.899999 -0.899999
vt 0.940819 0.555988
vt 0.940820 0.942814
vt 0.902217 0.761440
vt 0.902217 0.737359
vt 0.553996 0.555985
vt 0.759449 0.594589
vt 0.735367 0.594588
vt 0.965218 0.555988
vt 0.965220 0.942814
vt 0.477712 0.473101
vt 0.477724 0.086303
vt 0.533412 0.030604
vt 0.533413 0.528790
vt 0.553990 0.942814
vt 0.735366 0.904212
vt 0.759447 0.904211
vt 0.592596 0.761437
vt 0.592596 0.737357
vt 0.902217 0.904211
vt 0.592594 0.904211
vt 0.553997 0.531585
vt 0.940820 0.531589
vt 0.592598 0.594587
vt 0.090927 0.086274
vt 0.090915 0.473072
vt 0.035227 0.528771
vt 0.035226 0.030585
vt 0.529591 0.942814
vt 0.529597 0.555984
vt 0.553990 0.967214
vt 0.940820 0.967214
vt 0.757987 0.738819
vt 0.757987 0.759980
vt 0.736826 0.759980
vt 0.736826 0.738819
vt 0.883446 0.759980
vt 0.883446 0.738819
vt 0.611367 0.738817
vt 0.611367 0.759978
vt 0.902217 0.594590
vt 0.757987 0.885440
vt 0.736826 0.885440
vt 0.736827 0.613360
vt 0.757989 0.613360
vt 0.620121 0.264133
vt 0.620120 0.388591
vt 0.608647 0.388591
vt 0.608647 0.264133
vt 0.660444 0.264132
vt 0.660444 0.388591
vt 0.648971 0.388591
vt 0.648971 0.264132
vt 0.705861 0.139675
vt 0.705861 0.264133
vt 0.694388 0.264133
vt 0.694388 0.139675
vt 0.660444 0.513050
vt 0.648971 0.513050
vt 0.620120 0.139675
vt 0.608647 0.139675
vt 0.705861 0.388591
vt 0.694388 0.388591
vt 0.620120 0.015216
vt 0.608647 0.015216
vt 0.573841 0.388593
vt 0.573841 0.264134
vt 0.585314 0.264134
vt 0.585314 0.388593
vt 0.660444 0.015216
vt 0.660444 0.139674
vt 0.648971 0.139674
vt 0.648971 0.015216
vt 0.705861 0.513050
vt 0.694388 0.513050
vt 0.573841 0.139676
vt 0.585314 0.139676
vt 0.620120 0.513050
vt 0.608647 0.513050
vt 0.573841 0.015216
vt 0.585314 0.015216
vt 0.573841 0.513050
vt 0.585314 0.513050
vt 0.705861 0.015216
vt 0.694388 0.015217
vt 0.045406 0.977759
vt 0.045406 0.769655
vt 0.253510 0.769654
vt 0.253510 0.977759
vt 0.462154 0.769654
vt 0.462154 0.977759
vt 0.254050 0.977759
vt 0.254050 0.769654
vt 0.254050 0.769654
vt 0.254050 0.561550
vt 0.462154 0.561550
vt 0.462154 0.769654
vt 0.254050 0.561550
vt 0.254050 0.769654
vt 0.045946 0.769654
vt 0.045946 0.561550
vn 1.0000 -0.0000 0.0000
vn 0.0000 0.0000 -1.0000
vn 0.0000 -1.0000 0.0000
vn -0.0000 -0.0000 1.0000
vn 0.0000 1.0000 0.0000
usemtl Material
s off
f 1/1/1 5/2/1 23/3/1 22/4/1
f 2/5/1 1/1/1 20/6/1 19/7/1
f 5/2/2 1/1/2 4/8/2 8/9/2
f 8/10/1 4/11/1 10/12/1 12/13/1
f 5/2/1 6/14/1 25/15/1 26/16/1
f 18/17/1 6/14/1 2/5/1 17/18/1
f 28/19/1 23/3/1 5/2/1
f 18/17/1 27/20/1 6/14/1
f 3/21/3 4/22/3 1/1/3 2/5/3
f 19/7/1 21/23/1 2/5/1
f 3/24/1 7/25/1 11/26/1 9/27/1
f 6/14/4 7/28/4 3/29/4 2/5/4
f 7/30/5 6/14/5 5/2/5 8/31/5
f 12/13/1 11/26/1 7/25/1 8/10/1
f 4/11/1 3/24/1 9/27/1 10/12/1
f 15/32/1 16/33/1 14/34/1 13/35/1
f 23/36/1 16/33/1 15/32/1 22/37/1
f 17/38/1 13/35/1 14/34/1 18/39/1
f 24/40/1 20/6/1 1/1/1
f 16/33/1 26/41/1 25/42/1 14/34/1
f 17/18/1 2/5/1 21/23/1
f 19/43/1 20/44/1 15/32/1 13/35/1
f 25/15/1 6/14/1 27/20/1
f 22/4/1 24/40/1 1/1/1
f 5/2/1 26/16/1 28/19/1
f 28/45/3 26/46/3 42/47/3 44/48/3
f 24/49/4 22/50/4 38/51/4 40/52/4
f 25/53/3 27/54/3 43/55/3 41/56/3
f 22/50/3 15/57/3 31/58/3 38/51/3
f 23/59/4 28/45/4 44/48/4 39/60/4
f 27/54/2 18/61/2 34/62/2 43/55/2
f 16/63/5 23/59/5 39/60/5 32/64/5
f 17/65/2 21/66/2 37/67/2 33/68/2
f 15/69/2 20/70/2 36/71/2 31/72/2
f 18/61/5 14/73/5 30/74/5 34/62/5
f 21/66/5 19/75/5 35/76/5 37/67/5
f 26/46/2 16/77/2 32/78/2 42/47/2
f 19/75/4 13/79/4 29/80/4 35/76/4
f 13/81/3 17/65/3 33/68/3 29/82/3
f 14/83/4 25/53/4 41/56/4 30/84/4
f 20/70/5 24/49/5 40/52/5 36/71/5
f 43/85/1 34/86/1 30/87/1 41/88/1
f 39/89/1 44/90/1 42/91/1 32/92/1
f 31/93/1 36/94/1 40/95/1 38/96/1
f 35/97/1 29/98/1 33/99/1 37/100/1
