# Blender v2.79 (sub 0) OBJ File: 'Crystal.blend'
# www.blender.org
mtllib crystal_0.mtl
o Cylinder
v -0.000000 0.000000 0.000000
v -0.000000 1.234553 0.000000
v -0.000000 0.896679 -0.512001
v 0.443406 0.896679 -0.256001
v 0.443406 0.896679 0.256001
v -0.000000 0.896679 0.512001
v -0.443406 0.896679 0.256001
v -0.443406 0.896679 -0.256001
vt 0.547355 0.333366
vt 0.713674 0.029703
vt 0.713674 0.375930
vt 0.275220 0.333366
vt 0.441538 0.375930
vt 0.312035 0.535735
vt 0.039547 0.749238
vt 0.205865 0.791802
vt 0.076362 0.951607
vt 0.538896 0.749238
vt 0.705214 0.445576
vt 0.705214 0.791802
vt 0.766756 0.333366
vt 0.933075 0.375930
vt 0.803572 0.535735
vt 0.348498 0.951607
vt 0.311682 0.749238
vt 0.478000 0.791802
vt 0.933075 0.029703
vt 0.584171 0.535735
vt 0.575711 0.951607
vt 0.478001 0.445576
vt 0.205865 0.445576
vt 0.441538 0.029703
vn 0.8964 -0.4433 0.0000
vn 0.3030 0.7954 -0.5249
vn -0.3030 0.7954 -0.5249
vn 0.4482 -0.4433 0.7763
vn -0.6061 0.7954 0.0000
vn -0.3030 0.7954 0.5249
vn -0.8964 -0.4433 0.0000
vn 0.6061 0.7954 0.0000
vn 0.3030 0.7954 0.5249
vn -0.4482 -0.4433 0.7763
vn -0.4482 -0.4433 -0.7763
vn 0.4482 -0.4433 -0.7763
usemtl Material.001
s off
f 5/1/1 1/2/1 4/3/1
f 4/4/2 3/5/2 2/6/2
f 3/7/3 8/8/3 2/9/3
f 6/10/4 1/11/4 5/12/4
f 8/13/5 7/14/5 2/15/5
f 2/16/6 7/17/6 6/18/6
f 1/19/7 7/14/7 8/13/7
f 4/3/8 2/20/8 5/1/8
f 2/21/9 6/10/9 5/12/9
f 7/17/10 1/22/10 6/18/10
f 1/23/11 8/8/11 3/7/11
f 3/5/12 4/4/12 1/24/12
