# Blender v2.80 (sub 75) OBJ File: ''
# www.blender.org
mtllib weapon_3.mtl
o Cube.010
v -2735.939453 445.114990 -112.699539
v -2735.939453 692.124023 -112.699501
v -2735.939453 692.124023 -269.068970
v -2735.939453 445.114990 -269.069031
v -2546.662842 692.124023 -269.068970
v -2546.662842 445.114990 -269.069031
v -2546.662842 692.124023 -112.699501
v -2546.662842 445.114990 -112.699539
v -2735.939453 445.114990 112.700470
v -2735.939453 445.114990 269.069946
v -2735.939453 692.124023 269.070007
v -2735.939453 692.124023 112.700508
v -2546.662842 445.114990 269.069946
v -2546.662842 692.124023 269.070007
v -2546.662842 445.114990 112.700470
v -2546.662842 692.124023 112.700508
v 3239.827637 495.725098 92.697975
v 3315.507812 731.079102 92.698013
v 3315.507812 731.079102 -92.696991
v 3239.827637 495.725098 -92.697029
v 3505.001465 731.079102 -92.696991
v 3505.001465 495.725098 -92.697029
v 3505.001465 731.079102 92.698013
v 3505.001465 495.725098 92.697975
v -599.427551 96.805420 -472.090118
v 834.701050 96.805420 -472.090118
v 834.701050 -221.509033 -472.090149
v -599.427551 -221.509033 -472.090149
v -599.427551 -221.509033 472.090881
v 834.701050 -221.509033 472.090881
v 834.701050 96.805420 472.090912
v -599.427551 96.805420 472.090912
v 834.701050 453.725098 374.283447
v -599.427551 453.725098 374.283447
v 834.701050 546.972168 0.000480
v -599.427551 546.972168 0.000480
v 834.701050 453.725098 -374.282532
v -599.427551 453.725098 -374.282532
v 3333.658936 183.388672 -280.300568
v 4067.349854 183.388672 -280.300568
v 4067.349854 -14.816406 -198.204620
v 3333.658936 -14.816406 -198.201111
v 4067.349854 -96.912354 0.000375
v 3333.658936 -96.912354 0.000375
v 4067.349854 -14.816406 198.201874
v 3333.658936 -14.816406 198.201874
v 4067.349854 183.388672 280.301422
v 3333.658936 183.388672 280.301422
v 4067.349854 381.590088 198.201950
v 3333.658936 381.590088 198.205460
v 4067.349854 463.689453 0.000467
v 3333.658936 463.689453 0.000467
v 4067.349854 381.590088 -198.201035
v 3333.658936 381.590088 -198.201035
v 261.442993 -550.718750 -404.155212
v 3590.079590 -550.718750 -404.155212
v 3590.079590 -836.500977 -285.781769
v 261.442993 -836.500977 -285.781769
v 3590.079590 -954.874512 0.000235
v 261.442993 -954.874512 0.000235
v 3590.079590 -836.500977 285.782257
v 261.442993 -836.500977 285.782257
v 3590.079590 -550.718994 404.155823
v 261.442993 -550.718994 404.155823
v 3590.079590 -276.234863 404.155853
v 261.442993 -276.234863 404.155853
v 261.442993 -276.234863 -404.155182
v 3590.079590 -276.234863 -404.155182
v 1096.917480 -1009.467407 -464.537292
v 1112.989502 -308.361572 -464.537170
v 1112.989502 -308.361572 0.000341
v 1096.917480 -1009.467529 0.000227
v 835.456970 -1117.134399 -464.537292
v -226.845505 -1416.696045 -464.537354
v 309.183014 -1117.134399 -464.537292
v 319.455505 -1209.593872 -438.612823
v -156.743988 -1475.719971 -438.612854
v -3260.162354 -304.291016 -318.107666
v -3141.232422 -1321.601074 -318.107819
v -3141.232422 -1321.601074 0.000176
v -3260.162354 -304.291016 0.000341
v -2913.239014 -304.812500 -464.537170
v -2866.209473 -1353.058838 -464.537323
v 786.989014 -1209.593872 -438.612823
v 341.915009 -308.361572 -464.537170
v -992.075012 -1567.416504 -464.537384
v -549.153503 -308.361572 -464.537170
v -992.075012 -1567.416504 0.000136
v -156.743988 -1475.719971 0.000151
v 786.989014 -1209.593994 0.000194
v 319.455505 -1209.593994 0.000194
v 1019.263062 -1113.945801 -438.612793
v 1019.263062 -1113.945923 0.000210
v 1096.917480 -1009.467651 464.537720
v 1112.989502 -308.361572 464.537842
v 835.456970 -1117.134644 464.537720
v -226.845505 -1416.696045 464.537659
v -156.743988 -1475.720093 438.613159
v 319.455505 -1209.594116 438.613190
v 309.183014 -1117.134644 464.537720
v -3260.162354 -304.291016 318.108337
v -3141.232422 -1321.601074 318.108185
v -2866.209473 -1353.059082 464.537689
v -2913.239014 -304.812500 464.537842
v 786.989014 -1209.594116 438.613190
v 341.915009 -308.361572 464.537842
v -549.153503 -308.361572 464.537842
v -992.075012 -1567.416504 464.537628
v 1019.263062 -1113.946045 438.613220
v -3026.295898 -69.146973 497.875366
v -510.912476 -69.146973 497.875366
v -510.912476 215.350342 497.875427
v -2942.800049 215.350342 497.875427
v -3097.962158 -353.644653 497.875336
v -510.912476 -353.644653 497.875336
v -510.912476 466.510498 442.956970
v -2937.217529 466.510498 442.956970
v -2933.871582 544.760010 268.940491
v -510.912476 544.760010 268.940491
v -510.912476 585.937500 0.000486
v -2926.055908 585.937500 0.000486
v -3026.295898 -69.146973 -497.874634
v -2942.800049 215.350342 -497.874573
v -510.912476 215.350342 -497.874573
v -510.912476 -69.146973 -497.874634
v -3097.962158 -353.644409 -497.874664
v -510.912476 -353.644409 -497.874664
v 721.112000 -353.644653 497.875336
v 721.112000 -69.146973 497.875366
v 721.112000 -69.146973 -497.874634
v 721.112000 -353.644409 -497.874664
v -2937.217529 466.510498 -442.956055
v -510.912476 466.510498 -442.956055
v -2933.871582 544.760010 -268.939514
v -510.912476 544.760010 -268.939514
v -3115.280029 215.350342 339.311432
v -3115.280029 215.350342 -339.310577
v -3213.409424 -69.146973 -339.310638
v -3213.409424 -69.146973 339.311371
v -3297.633545 -353.644531 -339.310669
v 721.112000 466.510498 -442.956055
v 721.112000 544.760010 -268.939514
v 3662.277588 544.760010 -268.939514
v 3662.277588 466.510498 -442.956055
v 721.112000 215.350342 497.875427
v 721.112000 215.350342 -497.874573
v 721.112000 544.760010 268.940491
v 3662.277588 544.760010 268.940491
v 3662.277588 585.937500 0.000486
v 721.112000 585.937500 0.000486
v 3662.277588 -353.644653 497.875336
v 3662.277588 -69.146973 497.875366
v 3662.277588 -69.146973 -497.874634
v 3662.277588 -353.644409 -497.874664
v 3662.277588 215.350342 -497.874573
v -3115.280029 466.510498 -301.881531
v -3115.280029 544.760010 -183.287521
v -3115.280029 544.760010 183.288467
v -3115.280029 466.510498 301.882446
v 3662.277588 215.350342 497.875427
v 721.112000 466.510498 442.956970
v 3662.277588 466.510498 442.956970
v -3297.633545 -353.644531 339.311340
v -3070.682861 202.214844 0.000424
v -3070.682861 202.214844 -195.023071
v -3244.002930 299.948975 -172.563568
v -3244.002930 299.948975 0.000440
v -3228.284424 -223.650879 -196.713638
v -3324.328125 10.775391 -172.563614
v -3228.284424 -336.550537 0.000336
v -3324.328125 10.775391 0.000393
v -3459.165527 150.992432 -115.636086
v -3431.837646 249.366943 -115.636063
v -3459.165527 150.992432 0.000416
v -3431.837646 249.366943 0.000432
v -3244.002930 299.948975 172.564453
v -3070.682861 202.214844 195.023926
v -3324.328125 10.775391 172.564407
v -3228.284424 -223.650879 196.714340
v -3431.837646 249.366943 115.636932
v -3459.165527 150.992432 115.636909
v -1700.107544 -3449.814453 -367.573669
v -1617.111938 -3449.814453 -0.000171
v -1610.458496 -3905.276367 -0.000245
v -1693.450439 -3905.276367 -367.573730
v -1080.310059 -1398.026855 -367.573334
v -997.317993 -1398.026978 0.000163
v -3643.142822 -3210.645508 -367.573608
v -3609.871826 -3905.276367 -367.573730
v -3718.931885 -3905.276367 -0.000245
v -3752.202881 -3210.645508 -0.000132
v -3003.668457 -1282.170044 -367.573303
v -2999.230469 -1552.772461 -367.573334
v -3108.293945 -1552.772461 0.000138
v -3112.728516 -1282.170044 0.000182
v -1700.107544 -3449.814453 367.573303
v -3643.142822 -3210.645508 367.573364
v -3609.871826 -3905.276367 367.573242
v -1693.450439 -3905.276367 367.573242
v -1080.310059 -1398.027100 367.573639
v -3003.668457 -1282.170044 367.573669
v -2999.230469 -1552.772583 367.573639
v -3105.826416 -1133.745483 0.000206
v -3105.826416 -1133.745483 246.855209
v -3516.880371 -1177.432495 214.217697
v -3516.880371 -1177.432495 0.000199
v -3177.993164 -477.768555 249.312317
v -3528.251953 -741.413086 214.217773
v -3138.215576 -318.588379 0.000339
v -3528.251953 -741.413086 0.000270
v -3767.763916 -891.601562 131.481247
v -3763.892822 -1039.931519 131.481232
v -3767.763916 -891.601562 0.000246
v -3763.892822 -1039.931519 0.000222
v -3516.880371 -1177.432495 -214.217300
v -3105.826416 -1133.745483 -246.854782
v -3528.251953 -741.413086 -214.217224
v -3177.993164 -477.768555 -249.311676
v -3763.892822 -1039.931519 -131.480774
v -3767.763916 -891.601562 -131.480759
vt 0.422518 0.022263
vt 0.422518 0.082334
vt 0.384489 0.082334
vt 0.384489 0.022263
vt 0.757188 0.795004
vt 0.787485 0.794951
vt 0.787525 0.818167
vt 0.757228 0.818219
vt 0.787577 0.848465
vt 0.810741 0.818127
vt 0.810793 0.848424
vt 0.841038 0.818075
vt 0.810701 0.794912
vt 0.840998 0.794859
vt 0.477334 0.022263
vt 0.515364 0.022263
vt 0.515364 0.082334
vt 0.477334 0.082334
vt 0.284598 0.942914
vt 0.284657 0.964903
vt 0.255962 0.964980
vt 0.255902 0.942992
vt 0.256040 0.993676
vt 0.234051 0.993735
vt 0.233974 0.965040
vt 0.205278 0.965118
vt 0.205218 0.943129
vt 0.233914 0.943052
vt 0.472470 0.034571
vt 0.472470 0.091809
vt 0.427383 0.091809
vt 0.427383 0.034571
vt 0.889771 0.793617
vt 0.919798 0.793617
vt 0.919798 0.815286
vt 0.889771 0.815286
vt 0.914113 0.844770
vt 0.930097 0.815286
vt 0.935782 0.844770
vt 0.960124 0.815286
vt 0.930097 0.793617
vt 0.960124 0.793617
vt 0.935365 0.641220
vt 0.935365 0.493490
vt 0.968154 0.493490
vt 0.968154 0.641220
vt 0.746865 0.641220
vt 0.746865 0.493490
vt 0.779655 0.493490
vt 0.779655 0.641220
vt 0.817776 0.493490
vt 0.817776 0.641220
vt 0.857510 0.493490
vt 0.857510 0.641220
vt 0.897243 0.493490
vt 0.897243 0.641220
vt 0.758798 0.864230
vt 0.758798 0.989814
vt 0.722077 0.989814
vt 0.722077 0.864230
vt 0.685356 0.989814
vt 0.685355 0.864230
vt 0.979126 0.864230
vt 0.979126 0.989814
vt 0.942405 0.989814
vt 0.942405 0.864230
vt 0.905683 0.989814
vt 0.905683 0.864230
vt 0.868962 0.989814
vt 0.868962 0.864230
vt 0.832241 0.989814
vt 0.832241 0.864230
vt 0.699819 0.689214
vt 0.661315 0.689214
vt 0.634088 0.661987
vt 0.634088 0.623482
vt 0.661315 0.596255
vt 0.699819 0.596255
vt 0.727046 0.623482
vt 0.727046 0.661987
vt 0.795519 0.989814
vt 0.795519 0.864230
vt 0.778908 0.463274
vt 0.778908 0.055187
vt 0.818081 0.055187
vt 0.818080 0.463274
vt 0.857253 0.055187
vt 0.857252 0.463274
vt 0.896425 0.055187
vt 0.896424 0.463274
vt 0.935597 0.055187
vt 0.935596 0.463274
vt 0.970357 0.055187
vt 0.970356 0.463274
vt 0.744149 0.463274
vt 0.744149 0.055187
vt 0.636390 0.086472
vt 0.621400 0.050282
vt 0.621400 0.015522
vt 0.723761 0.015522
vt 0.723761 0.050282
vt 0.708771 0.086472
vt 0.672580 0.101463
vt 0.616371 0.570086
vt 0.616635 0.647622
vt 0.565281 0.647626
vt 0.565599 0.570866
vt 0.622755 0.566784
vt 0.618558 0.536569
vt 0.715042 0.585503
vt 0.613398 0.419035
vt 0.627218 0.481380
vt 0.616682 0.480126
vt 0.606071 0.424142
vt 0.602918 0.030907
vt 0.601983 0.143857
vt 0.567380 0.141024
vt 0.567838 0.030616
vt 0.715042 0.107046
vt 0.715042 0.146964
vt 0.611575 0.174222
vt 0.609869 0.529782
vt 0.715042 0.501073
vt 0.611388 0.346686
vt 0.715042 0.403566
vt 0.566530 0.346222
vt 0.566204 0.424990
vt 0.565771 0.529355
vt 0.565968 0.481803
vt 0.613292 0.555829
vt 0.565657 0.556761
vt 0.514835 0.569665
vt 0.513929 0.647197
vt 0.508479 0.566310
vt 0.416793 0.584409
vt 0.512926 0.536132
vt 0.519060 0.418644
vt 0.526345 0.423811
vt 0.515270 0.479706
vt 0.504724 0.480872
vt 0.532757 0.030616
vt 0.532755 0.143570
vt 0.522912 0.173854
vt 0.416793 0.145728
vt 0.416793 0.105889
vt 0.521671 0.529417
vt 0.416793 0.499840
vt 0.416793 0.402188
vt 0.521669 0.346314
vt 0.518032 0.555434
vt 0.338541 0.029868
vt 0.338541 0.276051
vt 0.310697 0.276051
vt 0.310697 0.038040
vt 0.366385 0.022854
vt 0.366386 0.276051
vt 0.285535 0.276051
vt 0.285535 0.038586
vt 0.266862 0.038914
vt 0.266862 0.276051
vt 0.240233 0.276051
vt 0.240234 0.039679
vt 0.141926 0.029868
vt 0.169770 0.038040
vt 0.169770 0.276051
vt 0.141926 0.276051
vt 0.114081 0.022854
vt 0.114081 0.276051
vt 0.366385 0.396631
vt 0.338541 0.396631
vt 0.141926 0.396631
vt 0.114082 0.396631
vt 0.194932 0.038586
vt 0.194932 0.276051
vt 0.213605 0.038914
vt 0.213605 0.276051
vt 0.469374 0.653358
vt 0.411787 0.654152
vt 0.411269 0.627827
vt 0.469447 0.627492
vt 0.410932 0.601974
vt 0.390335 0.633074
vt 0.389093 0.607246
vt 0.738113 0.717702
vt 0.742930 0.686243
vt 0.742930 0.749162
vt 0.752083 0.665887
vt 0.752083 0.769517
vt 0.781463 0.659463
vt 0.781463 0.775941
vt 0.194932 0.396631
vt 0.213605 0.396631
vt 0.213605 0.684486
vt 0.194931 0.684486
vt 0.310697 0.396631
vt 0.169770 0.396631
vt 0.266862 0.396631
vt 0.266862 0.684486
vt 0.240234 0.684486
vt 0.240234 0.396631
vt 0.366386 0.684486
vt 0.338542 0.684486
vt 0.141925 0.684486
vt 0.114082 0.684486
vt 0.169769 0.684486
vt 0.400075 0.682069
vt 0.418724 0.674964
vt 0.427930 0.680669
vt 0.415820 0.692580
vt 0.391162 0.659715
vt 0.454407 0.679488
vt 0.441894 0.698286
vt 0.467076 0.690398
vt 0.016439 0.295594
vt 0.016439 0.042396
vt 0.113894 0.042396
vt 0.113894 0.295593
vt 0.463300 0.673220
vt 0.481650 0.679484
vt 0.310698 0.684486
vt 0.285535 0.396631
vt 0.285536 0.684486
vt 0.469592 0.601974
vt 0.489438 0.658125
vt 0.489924 0.632393
vt 0.098375 0.022854
vt 0.031958 0.022854
vt 0.491036 0.607080
vt 0.577327 0.986913
vt 0.593789 0.945526
vt 0.557942 0.941448
vt 0.537493 0.966190
vt 0.593892 0.853533
vt 0.560435 0.893181
vt 0.571566 0.811256
vt 0.529240 0.874820
vt 0.533195 0.913542
vt 0.535283 0.927266
vt 0.514210 0.911335
vt 0.515494 0.932498
vt 0.610382 0.987743
vt 0.650402 0.966981
vt 0.629898 0.942116
vt 0.593901 0.946170
vt 0.627449 0.893650
vt 0.593901 0.853804
vt 0.616366 0.811380
vt 0.658791 0.875250
vt 0.652664 0.927901
vt 0.654776 0.914124
vt 0.672528 0.933177
vt 0.673841 0.911929
vt 0.337730 0.906264
vt 0.339161 0.935166
vt 0.304939 0.936104
vt 0.303736 0.908919
vt 0.499798 0.912109
vt 0.500700 0.939745
vt 0.332483 0.764548
vt 0.284549 0.769872
vt 0.282437 0.741406
vt 0.331060 0.738737
vt 0.481985 0.769987
vt 0.461893 0.772332
vt 0.459866 0.742421
vt 0.480373 0.742074
vt 0.277897 0.918621
vt 0.256787 0.765639
vt 0.217284 0.920357
vt 0.180477 0.781773
vt 0.231210 0.777232
vt 0.250397 0.916280
vt 0.338228 0.963571
vt 0.305191 0.963360
vt 0.498216 0.967282
vt 0.331558 0.711744
vt 0.281049 0.713575
vt 0.480872 0.714490
vt 0.461549 0.713768
vt 0.074620 0.985869
vt 0.066636 0.845091
vt 0.046957 0.847478
vt 0.690278 0.707476
vt 0.701392 0.737639
vt 0.658707 0.746658
vt 0.643968 0.728382
vt 0.701554 0.813381
vt 0.662011 0.785179
vt 0.692058 0.847484
vt 0.643193 0.800709
vt 0.639542 0.770018
vt 0.639098 0.758173
vt 0.627162 0.773338
vt 0.625801 0.755802
vt 0.516612 0.669733
vt 0.569198 0.693337
vt 0.552523 0.714105
vt 0.504076 0.703977
vt 0.548868 0.757814
vt 0.504076 0.789903
vt 0.514931 0.828569
vt 0.570254 0.775386
vt 0.574796 0.727121
vt 0.574320 0.740559
vt 0.589874 0.724399
vt 0.588373 0.744297
vt 0.968929 0.717702
vt 0.964113 0.749162
vt 0.964113 0.686243
vt 0.954959 0.769517
vt 0.954959 0.665887
vt 0.925580 0.775941
vt 0.925580 0.659463
vt 0.113895 0.731873
vt 0.016440 0.731873
vt 0.016440 0.704028
vt 0.113895 0.704028
vt 0.113895 0.759717
vt 0.016440 0.759717
vt 0.108520 0.784298
vt 0.021815 0.784298
vt 0.091489 0.791956
vt 0.038846 0.791956
vt 0.065167 0.795986
vt 0.113895 0.416173
vt 0.016439 0.416173
vn -1.0000 -0.0000 0.0000
vn 0.0000 0.0000 -1.0000
vn 1.0000 0.0000 0.0000
vn 0.0000 -0.0000 1.0000
vn 0.0000 1.0000 0.0000
vn -0.9520 0.3061 0.0000
vn 0.0000 0.2643 0.9644
vn 0.0000 0.9703 0.2417
vn 0.0000 0.9703 -0.2417
vn 0.0000 0.2643 -0.9644
vn -0.0000 -0.3827 -0.9239
vn -0.0000 -0.9239 -0.3827
vn 0.0000 -0.9239 0.3827
vn 0.0000 -0.3827 0.9239
vn 0.0000 0.3827 0.9239
vn 0.0000 0.9239 0.3827
vn 0.0000 0.9239 -0.3827
vn 0.0000 0.3827 -0.9239
vn 0.9997 -0.0229 -0.0000
vn 0.1412 -0.2527 -0.9572
vn -0.9932 -0.1161 0.0000
vn -0.4272 -0.0343 -0.9035
vn 0.0000 -0.2700 -0.9629
vn 0.0659 -0.3346 -0.9400
vn -0.1136 -0.9935 -0.0000
vn 0.1091 -0.9940 0.0000
vn 0.0000 -1.0000 -0.0000
vn 0.3808 -0.9247 -0.0000
vn 0.4878 -0.8729 0.0000
vn 0.8026 -0.5965 -0.0000
vn 0.1373 -0.3335 -0.9327
vn 0.1412 -0.2527 0.9572
vn -0.4272 -0.0343 0.9035
vn 0.0000 -0.2700 0.9629
vn 0.0659 -0.3346 0.9400
vn 0.1373 -0.3335 0.9327
vn 0.0000 0.2136 0.9769
vn 0.0000 0.9885 0.1513
vn 0.0000 0.2136 -0.9769
vn 0.0000 0.9885 -0.1513
vn -0.9453 0.3261 0.0000
vn -0.6247 0.1711 -0.7619
vn 0.0000 0.9120 -0.4101
vn -0.2837 0.8469 -0.4497
vn -0.6429 0.1454 -0.7521
vn -0.6472 0.2066 -0.7338
vn 0.0000 0.9120 0.4101
vn -0.2126 0.9771 0.0000
vn -0.0703 0.9863 0.1490
vn -0.0703 0.9863 -0.1490
vn -0.2837 0.8469 0.4497
vn -0.9589 0.2839 0.0000
vn -0.6429 0.1454 0.7521
vn -0.6472 0.2066 0.7338
vn -0.6247 0.1711 0.7619
vn 0.4912 0.8711 0.0000
vn -0.1197 0.0422 -0.9919
vn -0.9638 -0.2665 0.0000
vn -0.9133 -0.3533 -0.2028
vn -0.3101 0.0862 -0.9468
vn -0.9635 0.2677 0.0000
vn -0.7208 -0.6931 0.0000
vn -0.2600 0.9656 0.0000
vn -0.1197 0.0422 0.9919
vn -0.9133 -0.3533 0.2028
vn -0.3101 0.0862 0.9468
vn 0.9753 0.0143 -0.2202
vn 0.9357 -0.2826 -0.2113
vn -0.9577 -0.0459 -0.2841
vn -0.9586 -0.0157 -0.2844
vn -0.8984 0.3489 -0.2666
vn 0.9753 0.0143 0.2202
vn 0.9357 -0.2826 0.2113
vn -0.9577 -0.0459 0.2841
vn -0.9586 -0.0157 0.2844
vn -0.8984 0.3489 0.2666
vn 0.1057 -0.9944 0.0000
vn -0.0851 -0.0088 0.9963
vn -0.7350 0.6780 0.0000
vn -0.5822 0.7242 0.3695
vn -0.3218 -0.0084 0.9468
vn -0.9997 -0.0261 0.0000
vn -0.5313 0.8472 0.0000
vn -0.4864 -0.8737 0.0000
vn -0.0851 -0.0088 -0.9963
vn -0.5822 0.7242 -0.3695
vn -0.3218 -0.0084 -0.9468
usemtl Material.023
s 1
f 1/1/1 2/2/1 3/3/1 4/4/1
f 4/5/2 3/6/2 5/7/2 6/8/2
f 6/9/3 5/7/3 7/10/3 8/11/3
f 8/12/4 7/10/4 2/13/4 1/14/4
f 5/7/5 3/6/5 2/13/5 7/10/5
f 9/15/1 10/16/1 11/17/1 12/18/1
f 10/19/4 13/20/4 14/21/4 11/22/4
f 13/23/3 15/24/3 16/25/3 14/21/3
f 15/26/2 9/27/2 12/28/2 16/25/2
f 14/21/5 16/25/5 12/28/5 11/22/5
f 17/29/6 18/30/6 19/31/6 20/32/6
f 20/33/2 19/34/2 21/35/2 22/36/2
f 22/37/3 21/35/3 23/38/3 24/39/3
f 24/40/4 23/38/4 18/41/4 17/42/4
f 21/35/5 19/34/5 18/41/5 23/38/5
f 25/43/2 26/44/2 27/45/2 28/46/2
f 29/47/4 30/48/4 31/49/4 32/50/4
f 32/50/7 31/49/7 33/51/7 34/52/7
f 34/52/8 33/51/8 35/53/8 36/54/8
f 36/54/9 35/53/9 37/55/9 38/56/9
f 38/56/10 37/55/10 26/44/10 25/43/10
f 39/57/11 40/58/11 41/59/11 42/60/11
f 42/60/12 41/59/12 43/61/12 44/62/12
f 44/63/13 43/64/13 45/65/13 46/66/13
f 46/66/14 45/65/14 47/67/14 48/68/14
f 48/68/15 47/67/15 49/69/15 50/70/15
f 50/70/16 49/69/16 51/71/16 52/72/16
f 41/73/3 40/74/3 53/75/3 51/76/3 49/77/3 47/78/3 45/79/3 43/80/3
f 52/72/17 51/71/17 53/81/17 54/82/17
f 54/82/18 53/81/18 40/58/18 39/57/18
f 55/83/11 56/84/11 57/85/11 58/86/11
f 58/86/12 57/85/12 59/87/12 60/88/12
f 60/88/13 59/87/13 61/89/13 62/90/13
f 62/90/14 61/89/14 63/91/14 64/92/14
f 64/92/4 63/91/4 65/93/4 66/94/4
f 56/84/2 55/83/2 67/95/2 68/96/2
f 57/97/3 56/98/3 68/99/3 65/100/3 63/101/3 61/102/3 59/103/3
f 69/104/19 70/105/19 71/106/19 72/107/19
f 69/108/2 73/109/2 70/110/2
f 74/111/20 75/112/20 76/113/20 77/114/20
f 78/115/21 79/116/21 80/117/21 81/118/21
f 79/116/22 78/119/22 82/120/22 83/121/22
f 75/112/23 73/109/23 84/122/23 76/113/23
f 85/123/2 70/110/2 73/109/2 75/112/2
f 74/111/2 86/124/2 87/125/2
f 82/120/2 87/125/2 86/124/2 83/121/2
f 87/125/2 85/123/2 75/112/2 74/111/2
f 74/111/24 77/114/24 86/124/24
f 80/117/25 83/121/25 86/124/25 88/126/25
f 79/116/25 83/121/25 80/117/25
f 88/126/26 86/124/26 77/114/26 89/127/26
f 84/122/27 90/128/27 91/129/27 76/113/27
f 92/130/28 93/131/28 90/128/28 84/122/28
f 76/113/29 91/129/29 89/127/29 77/114/29
f 69/104/30 72/107/30 93/131/30 92/130/30
f 73/109/31 69/108/31 92/130/31 84/122/31
f 94/132/19 72/107/19 71/106/19 95/133/19
f 94/134/4 95/135/4 96/136/4
f 97/137/32 98/138/32 99/139/32 100/140/32
f 101/141/21 81/118/21 80/117/21 102/142/21
f 102/142/33 103/143/33 104/144/33 101/145/33
f 100/140/34 99/139/34 105/146/34 96/136/34
f 106/147/4 100/140/4 96/136/4 95/135/4
f 97/137/4 107/148/4 108/149/4
f 104/144/4 103/143/4 108/149/4 107/148/4
f 107/148/4 97/137/4 100/140/4 106/147/4
f 97/137/35 108/149/35 98/138/35
f 80/117/25 88/126/25 108/149/25 103/143/25
f 102/142/25 80/117/25 103/143/25
f 88/126/26 89/127/26 98/138/26 108/149/26
f 105/146/27 99/139/27 91/129/27 90/128/27
f 109/150/28 105/146/28 90/128/28 93/131/28
f 99/139/29 98/138/29 89/127/29 91/129/29
f 94/132/30 109/150/30 93/131/30 72/107/30
f 96/136/36 105/146/36 109/150/36 94/134/36
f 110/151/4 111/152/4 112/153/4 113/154/4
f 114/155/4 115/156/4 111/152/4 110/151/4
f 113/154/37 112/153/37 116/157/37 117/158/37
f 118/159/38 119/160/38 120/161/38 121/162/38
f 122/163/2 123/164/2 124/165/2 125/166/2
f 126/167/2 122/163/2 125/166/2 127/168/2
f 111/152/4 115/156/4 128/169/4 129/170/4
f 127/168/2 125/166/2 130/171/2 131/172/2
f 123/164/39 132/173/39 133/174/39 124/165/39
f 134/175/40 121/162/40 120/161/40 135/176/40
f 136/177/41 137/178/41 138/179/41 139/180/41
f 140/181/42 138/179/42 122/182/42 126/183/42
f 120/184/3 119/185/3 135/186/3
f 119/185/3 116/187/3 133/188/3 135/186/3
f 116/187/3 112/189/3 124/190/3 133/188/3
f 141/191/43 142/192/43 143/193/43 144/194/43
f 112/153/4 111/152/4 129/170/4 145/195/4
f 125/166/2 124/165/2 146/196/2 130/171/2
f 147/197/38 148/198/38 149/199/38 150/200/38
f 129/170/4 128/169/4 151/201/4 152/202/4
f 131/172/2 130/171/2 153/203/2 154/204/2
f 141/191/39 144/194/39 155/205/39 146/196/39
f 133/174/43 132/173/43 134/175/43 135/176/43
f 132/206/44 156/207/44 157/208/44 134/209/44
f 123/210/45 137/178/45 156/207/45 132/206/45
f 122/182/46 138/179/46 137/178/46 123/210/46
f 116/157/47 119/160/47 118/159/47 117/158/47
f 158/211/48 121/212/48 157/208/48
f 121/212/49 158/211/49 118/213/49
f 115/214/27 114/215/27 126/216/27 127/217/27
f 159/218/1 158/211/1 157/208/1 156/207/1
f 134/209/50 157/208/50 121/212/50
f 136/177/1 159/218/1 156/207/1 137/178/1
f 117/219/51 118/213/51 158/211/51 159/218/51
f 145/195/4 129/170/4 152/202/4 160/220/4
f 130/171/2 146/196/2 155/205/2 153/203/2
f 147/197/47 161/221/47 162/222/47 148/198/47
f 163/223/52 139/180/52 138/179/52 140/181/52
f 113/224/53 117/219/53 159/218/53 136/177/53
f 139/180/54 110/225/54 113/224/54 136/177/54
f 140/226/27 126/216/27 114/215/27 163/227/27
f 139/180/55 163/223/55 114/228/55 110/225/55
f 164/229/56 165/230/56 166/231/56 167/232/56
f 165/230/57 168/233/57 169/234/57 166/231/57
f 170/235/58 171/236/58 169/234/58
f 168/233/59 170/235/59 169/234/59
f 166/231/60 169/234/60 172/237/60 173/238/60
f 173/238/61 172/237/61 174/239/61 175/240/61
f 169/234/62 171/236/62 174/239/62 172/237/62
f 167/232/63 166/231/63 173/238/63 175/240/63
f 164/241/56 167/242/56 176/243/56 177/244/56
f 177/244/64 176/243/64 178/245/64 179/246/64
f 170/247/58 178/245/58 171/248/58
f 179/246/65 178/245/65 170/247/65
f 176/243/66 180/249/66 181/250/66 178/245/66
f 180/249/61 175/251/61 174/252/61 181/250/61
f 178/245/62 181/250/62 174/252/62 171/248/62
f 167/242/63 175/251/63 180/249/63 176/243/63
f 182/253/67 183/254/67 184/255/67 185/256/67
f 182/253/68 186/257/68 187/258/68 183/254/68
f 188/259/69 189/260/69 190/261/69 191/262/69
f 192/263/70 193/264/70 194/265/70 195/266/70
f 193/264/71 188/259/71 191/262/71 194/265/71
f 189/260/27 185/256/27 184/267/27 190/268/27
f 196/269/4 197/270/4 198/271/4 199/272/4
f 196/273/72 199/274/72 184/255/72 183/254/72
f 196/273/73 183/254/73 187/258/73 200/275/73
f 197/276/74 191/262/74 190/261/74 198/277/74
f 201/278/75 195/266/75 194/265/75 202/279/75
f 202/279/76 194/265/76 191/262/76 197/276/76
f 198/271/27 190/268/27 184/267/27 199/272/27
f 185/256/2 189/260/2 188/259/2 182/253/2
f 196/269/4 200/280/4 202/281/4 197/270/4
f 201/282/4 202/281/4 200/280/4
f 193/264/2 186/257/2 182/253/2 188/259/2
f 192/263/2 186/257/2 193/264/2
f 203/283/77 204/284/77 205/285/77 206/286/77
f 204/284/78 207/287/78 208/288/78 205/285/78
f 209/289/79 210/290/79 208/288/79
f 207/287/80 209/289/80 208/288/80
f 205/285/81 208/288/81 211/291/81 212/292/81
f 212/292/82 211/291/82 213/293/82 214/294/82
f 208/288/83 210/290/83 213/293/83 211/291/83
f 206/286/84 205/285/84 212/292/84 214/294/84
f 203/295/77 206/296/77 215/297/77 216/298/77
f 216/298/85 215/297/85 217/299/85 218/300/85
f 209/301/79 217/299/79 210/302/79
f 218/300/86 217/299/86 209/301/86
f 215/297/87 219/303/87 220/304/87 217/299/87
f 219/303/82 214/305/82 213/306/82 220/304/82
f 217/299/83 220/304/83 213/306/83 210/302/83
f 206/296/84 214/305/84 219/303/84 215/297/84
f 150/200/40 149/199/40 143/193/40 142/192/40
f 145/195/37 160/220/37 162/222/37 161/221/37
f 150/307/1 142/308/1 147/309/1
f 142/308/1 141/310/1 161/311/1 147/309/1
f 146/312/1 145/313/1 161/311/1 141/310/1
f 112/189/5 145/313/5 146/312/5 124/190/5
f 153/314/3 152/315/3 151/316/3 154/317/3
f 155/318/3 160/319/3 152/315/3 153/314/3
f 144/320/3 162/321/3 160/319/3 155/318/3
f 143/322/3 148/323/3 162/321/3 144/320/3
f 149/324/3 148/323/3 143/322/3
f 131/325/27 128/326/27 115/214/27 127/217/27
f 154/317/27 151/316/27 128/326/27 131/325/27
