# Blender v2.79 (sub 0) OBJ File: 'Shield_1.blend'
# www.blender.org
mtllib weapon_14.mtl
o Cube.001_Cube.007
v -0.121656 0.617359 1.010743
v -0.121656 1.764968 1.010743
v -0.121656 0.617359 -1.025645
v -0.121656 1.764968 -1.025645
v -0.021972 0.617359 1.010743
v -0.021972 1.764968 1.010743
v -0.021972 0.617359 -1.025645
v -0.021972 1.764968 -1.025645
v -0.193131 0.640042 -1.000000
v -0.193131 0.640042 1.000000
v -0.193131 1.753454 1.000000
v -0.193131 1.753454 -1.000000
v -0.193131 2.423752 -1.036099
v -0.193131 -2.319468 -1.036099
v -0.193131 -2.319468 1.036099
v -0.193131 2.423752 1.036099
v 0.049635 -2.319468 -1.036099
v 0.049635 -2.319468 1.036099
v 0.049635 2.423752 1.036099
v 0.049635 2.423752 -1.036099
v -0.443922 2.423752 -1.424456
v -0.443922 -1.791220 -1.424456
v -0.201156 -1.791220 -1.424456
v 0.049635 1.753454 -1.000000
v 0.049635 0.640042 -1.000000
v -0.201156 -1.791220 1.424456
v -0.443922 -1.791220 1.424456
v 0.049635 0.640042 1.000000
v 0.049635 1.753454 1.000000
v -0.443922 2.423752 1.424456
v -0.201156 2.423752 -1.424456
v -0.201156 2.423752 1.424456
v -0.193131 2.206286 0.758838
v -0.193131 2.206286 -0.758838
v 0.049635 2.206286 -0.758838
v 0.049635 2.206286 0.758838
vt 0.598008 0.988462
vt 0.598008 0.809890
vt 0.914878 0.809890
vt 0.914878 0.988462
vt 0.914878 0.809890
vt 0.914878 0.988462
vt 0.598008 0.988463
vt 0.598008 0.809890
vt 0.396634 0.792319
vt 0.396634 0.754961
vt 0.439299 0.788425
vt 0.439299 0.825782
vt 0.120428 0.825782
vt 0.060667 0.825782
vt 0.060667 0.788425
vt 0.120428 0.788425
vt 0.499060 0.788425
vt 0.499060 0.825783
vt 0.125983 0.685279
vt 0.433745 0.685279
vt 0.163093 0.754961
vt 0.120428 0.058534
vt 0.439299 0.058534
vt 0.433745 0.513947
vt 0.125983 0.513947
vt 0.439299 0.021177
vt 0.120428 0.021177
vt 0.974810 0.139822
vt 0.974810 0.788425
vt 0.915049 0.788425
vt 0.915049 0.058534
vt 0.499060 0.139822
vt 0.499060 0.102465
vt 0.536417 0.139822
vt 0.596178 0.058534
vt 0.596178 0.788425
vt 0.536417 0.788425
vt 0.060667 0.139822
vt 0.060667 0.102465
vt 0.909495 0.685279
vt 0.909495 0.513946
vt 0.023310 0.788425
vt 0.023310 0.139822
vt 0.601733 0.513946
vt 0.601733 0.685279
vt 0.223688 0.881479
vt 0.223688 0.860785
vt 0.052120 0.860786
vt 0.052120 0.881479
vt 0.872384 0.754961
vt 0.638843 0.754961
vt 0.223680 0.946577
vt 0.223680 0.927568
vt 0.052107 0.927568
vt 0.052107 0.946576
vt 0.531862 0.946577
vt 0.531862 0.927567
vt 0.531862 0.881479
vt 0.531862 0.860784
vt 0.163093 0.792319
vn -1.0000 0.0000 0.0000
vn 1.0000 0.0000 0.0000
vn 0.0000 0.7868 0.6172
vn 0.0000 1.0000 0.0000
vn 0.0000 -1.0000 0.0000
vn -0.8401 0.0000 -0.5425
vn 0.0000 -0.5923 -0.8057
vn -0.8401 0.0000 0.5425
vn 0.0000 -0.5923 0.8057
vn 0.8401 0.0000 -0.5425
vn 0.0000 0.0000 -1.0000
vn 0.8401 0.0000 0.5425
vn 0.0000 0.0000 1.0000
vn 0.0000 0.7868 -0.6172
usemtl Material.002
s off
f 1/1/1 2/2/1 4/3/1 3/4/1
f 7/5/2 8/6/2 6/7/2 5/8/2
usemtl Material.001
f 34/9/3 35/10/3 20/11/3 13/12/3
f 16/13/4 30/14/4 32/15/4 19/16/4
f 31/17/4 21/18/4 13/12/4 20/11/4
f 29/19/2 24/20/2 35/10/2 36/21/2
f 18/22/2 17/23/2 25/24/2 28/25/2
f 14/26/5 17/23/5 18/22/5 15/27/5
f 27/28/6 30/29/6 16/30/6 15/31/6
f 23/32/7 17/23/7 14/26/7 22/33/7
f 22/34/8 14/35/8 13/36/8 21/37/8
f 26/38/9 27/39/9 15/27/9 18/22/9
f 23/32/10 31/17/10 20/11/10 17/23/10
f 31/17/11 23/32/11 22/34/11 21/37/11
f 16/30/1 11/40/1 10/41/1 15/31/1
f 26/38/12 18/22/12 19/16/12 32/15/12
f 32/15/13 30/42/13 27/43/13 26/38/13
f 20/11/2 24/20/2 25/24/2 17/23/2
f 13/36/1 14/35/1 9/44/1 12/45/1
f 19/16/2 18/22/2 28/25/2 29/19/2
f 11/46/11 29/47/11 28/48/11 10/49/11
f 12/45/1 11/40/1 33/50/1 34/51/1
f 9/52/13 25/53/13 24/54/13 12/55/13
f 34/51/1 13/36/1 12/45/1
f 25/53/4 9/52/4 10/56/4 28/57/4
f 12/58/5 24/59/5 29/47/5 11/46/5
f 14/35/1 15/31/1 10/41/1 9/44/1
f 20/11/2 35/10/2 24/20/2
f 19/16/2 29/19/2 36/21/2
f 11/40/1 16/30/1 33/50/1
f 16/13/14 19/16/14 36/21/14 33/60/14
f 33/60/4 36/21/4 35/10/4 34/9/4
