# Blender v2.80 (sub 74) OBJ File: 'runner].blend'
# www.blender.org
mtllib runner_Final.mtl
o runner(1)
v 1.305413 -6.826203 -1.665761
v 1.330693 -6.811636 -2.876836
v 1.001047 2.843066 1.007590
v -0.998913 2.843066 1.007590
v 1.001047 4.443067 -0.981076
v -0.998913 4.443067 -0.981076
v 1.001047 4.843066 -0.981076
v -0.998913 4.843067 1.007590
v 1.001047 4.843067 1.007590
v -0.998913 4.843066 -0.981076
v 1.329231 -5.837040 -2.889399
v 1.301040 -2.218876 -0.087246
v 1.325393 -1.317546 -1.024015
v -0.998913 2.843066 -0.981076
v -0.998913 4.443067 1.007590
v 1.303961 -5.864400 -1.684508
v 1.001047 4.443067 1.007590
v 1.001047 2.843066 -0.981076
v -2.106912 1.732351 -0.166689
v -0.939439 1.300401 0.191543
v -1.677681 1.395559 2.832032
v -2.421736 1.947360 2.122826
v -1.686370 2.932023 -0.090685
v -0.518897 2.500073 0.267547
v -1.426570 2.537699 3.201245
v -2.170625 3.089499 2.492038
v -4.891920 1.319983 3.693832
v -5.147149 1.854621 2.849921
v -4.827188 2.179546 4.218809
v -5.082417 2.714185 3.374898
v -4.238472 1.188589 3.574390
v -4.559108 1.860240 2.514210
v -4.477428 2.944846 3.176631
v -4.156791 2.273196 4.236812
v -4.262702 1.369617 3.534978
v -4.517931 1.904255 2.691067
v -4.453198 2.763818 3.216044
v -4.197969 2.229180 4.059955
v 1.301040 -1.956934 -0.622821
v -1.298907 -1.956934 -0.639347
v -1.298907 -0.996934 -0.639347
v 1.301040 -0.996934 -0.622820
v -1.298907 -1.956934 0.660627
v -1.298907 -0.996934 0.660627
v -1.298907 2.843066 0.660628
v 1.301040 2.843066 0.677155
v 1.301040 2.843066 -0.622820
v -1.298907 2.843066 -0.639346
v 1.301040 -0.996934 0.677154
v 1.301040 -1.956934 0.677153
v 0.029379 -5.866910 -2.850642
v 0.030813 -6.832332 -2.848036
v 0.025420 -1.311817 -1.029969
v 0.005460 -6.828851 -1.666664
v 0.001067 -2.213147 -0.093200
v 0.003987 -5.865908 -1.697874
v 1.300778 -3.722619 -1.696653
v 1.325724 -3.384711 -2.805158
v 0.000815 -3.727036 -1.706216
v 0.025756 -3.383770 -2.812593
v 1.801202 2.829281 0.352527
v 1.801202 1.533941 0.352527
v 2.992443 1.503203 -2.370161
v 3.021835 2.657017 -1.924139
v 0.646077 2.829280 -0.183693
v 0.646077 1.533941 -0.183693
v 1.779684 1.532007 -2.672284
v 1.779684 2.673936 -2.253734
v 3.165549 3.710559 -5.123470
v 3.165549 4.497427 -4.457132
v 2.158748 3.756213 -5.177382
v 2.158748 4.543080 -4.511045
v 3.251787 3.184179 -4.706321
v 3.251787 4.172697 -3.869221
v 1.981394 4.230304 -3.937248
v 1.981394 3.241786 -4.774347
v 3.119991 3.290980 -4.627997
v 3.119991 4.077848 -3.961659
v 2.113190 4.123502 -4.015572
v 2.113190 3.336635 -4.681909
v 0.044615 -4.043499 4.144120
v 0.044620 -5.522034 3.997702
v 0.044603 -5.405541 2.821351
v -0.039432 -1.980558 0.677887
v -0.039428 -1.981703 -0.622087
v 0.044597 -3.927006 2.967768
v -1.441163 -5.414947 2.820441
v -1.441146 -5.531440 3.996794
v -1.339401 -1.981729 -0.630355
v -1.441151 -4.052905 4.143211
v -1.339406 -1.980585 0.669619
v -1.441169 -3.936412 2.966859
v 0.002580 -4.056279 0.410830
v 0.002585 -4.796119 -0.312366
v -1.390290 -4.060995 0.406241
v -1.390285 -4.800835 -0.316954
vt 0.855811 0.994339
vt 0.855811 0.931926
vt 0.908733 0.931926
vt 0.908733 0.994339
vt 0.628823 0.137346
vt 0.903759 0.137346
vt 0.903759 0.479067
vt 0.628824 0.479068
vt 0.903759 0.479067
vt 0.628823 0.479068
vt 0.628823 0.137346
vt 0.903759 0.137346
vt 0.903759 0.479067
vt 0.628823 0.479068
vt 0.628823 0.135405
vt 0.903759 0.135405
vt 0.931287 0.994339
vt 0.930864 0.931928
vt 0.997381 0.931928
vt 0.997804 0.994339
vt 0.872965 -0.001787
vt 0.991747 -0.001787
vt 0.991747 0.116325
vt 0.872965 0.116325
vt 0.993491 0.479414
vt 0.924757 0.479414
vt 0.924756 0.135752
vt 0.993491 0.135752
vt 0.728668 0.994339
vt 0.728668 0.931926
vt 0.728668 0.994339
vt 0.601524 0.994339
vt 0.601524 0.931927
vt 0.855811 0.994339
vt 0.855811 0.931927
vt 0.908733 0.931927
vt 0.908733 0.994339
vt 0.997804 0.994339
vt 0.931287 0.994339
vt 0.931709 0.931928
vt 0.998227 0.931928
vt 0.986641 0.332875
vt 0.933817 0.332875
vt 0.933817 0.280350
vt 0.986641 0.280350
vt 0.924756 0.137692
vt 0.993491 0.137692
vt 0.993490 0.479414
vt 0.924757 0.479414
vt 0.925262 0.479414
vt 0.925262 0.135752
vt 0.993996 0.135752
vt 0.993996 0.479414
vt 0.925262 0.137692
vt 0.993996 0.137692
vt 0.993996 0.479414
vt 0.925262 0.479414
vt 0.331505 0.478815
vt 0.331505 0.135153
vt 0.606440 0.135153
vt 0.606440 0.478815
vt 0.558094 0.674933
vt 0.558094 0.965885
vt 0.450666 0.965885
vt 0.450666 0.674933
vt 0.558094 0.822439
vt 0.558094 0.967912
vt 0.450666 0.967912
vt 0.450666 0.822439
vt 0.451674 0.965885
vt 0.451674 0.674933
vt 0.551626 0.675858
vt 0.551626 0.966809
vt 0.554024 0.672239
vt 0.554024 0.963190
vt 0.454071 0.964115
vt 0.454071 0.673163
vt 0.450870 0.965043
vt 0.450870 0.674092
vt 0.558299 0.674092
vt 0.558299 0.965043
vt 0.001369 0.800873
vt 0.001369 0.509921
vt 0.431082 0.509921
vt 0.431082 0.800873
vt 0.451022 0.820669
vt 0.560732 0.820669
vt 0.560732 0.928098
vt 0.451022 0.928098
vt 0.431082 0.509921
vt 0.431082 0.800873
vt 0.001369 0.800873
vt 0.001369 0.509921
vt 0.559588 0.674290
vt 0.559588 0.965242
vt 0.450778 0.966167
vt 0.450778 0.675215
vt -0.000608 0.972981
vt -0.000608 0.827508
vt 0.429105 0.827508
vt 0.429105 0.972981
vt -0.000608 0.972981
vt -0.000608 0.827508
vt 0.429105 0.827508
vt 0.429105 0.972981
vt 0.728667 0.931926
vt 0.855811 0.931926
vt 0.855811 0.994339
vt 0.601524 0.931927
vt 0.728667 0.931927
vt 0.728668 0.994339
vt 0.601524 0.994339
vt 0.908733 0.931926
vt 0.908733 0.994339
vt 0.601524 0.994339
vt 0.601524 0.931926
vt 0.855811 0.931927
vt 0.855811 0.994339
vt 0.601524 0.994339
vt 0.601524 0.931926
vt 0.855811 0.931927
vt 0.855811 0.994339
vt 0.908733 0.931927
vt 0.908733 0.994339
vt 0.855811 0.994339
vt 0.855811 0.931926
vt 0.908733 0.931926
vt 0.908733 0.994339
vt 0.728668 0.994339
vt 0.728668 0.931926
vt 0.728668 0.994339
vt 0.601524 0.994339
vt 0.601524 0.931927
vt 0.855811 0.994339
vt 0.855811 0.931927
vt 0.908733 0.931927
vt 0.908733 0.994339
vt 0.997804 0.994339
vt 0.931287 0.994339
vt 0.931709 0.931928
vt 0.998227 0.931928
vt 0.728667 0.931926
vt 0.855811 0.931926
vt 0.855811 0.994339
vt 0.601524 0.931927
vt 0.728667 0.931927
vt 0.728668 0.994339
vt 0.601524 0.994339
vt 0.908733 0.931926
vt 0.908733 0.994339
vt 0.601524 0.994339
vt 0.601524 0.931926
vt 0.855811 0.931927
vt 0.855811 0.994339
vt 0.601524 0.994339
vt 0.601524 0.931926
vt 0.855811 0.931927
vt 0.855811 0.994339
vt 0.908733 0.931927
vt 0.908733 0.994339
vt 0.574085 0.906671
vt 0.574085 0.765494
vt 0.863412 0.765494
vt 0.863412 0.906671
vt 0.667367 0.906671
vt 0.577075 0.906671
vt 0.577075 0.767872
vt 0.667367 0.767872
vt 0.724549 0.765494
vt 0.724549 0.906671
vt 0.585750 0.906671
vt 0.585750 0.765494
vt 0.852409 0.767872
vt 0.852409 0.906671
vt 0.863348 0.765494
vt 0.863348 0.906671
vt 0.574021 0.906671
vt 0.574021 0.765494
vt 0.863348 0.767872
vt 0.863348 0.906671
vt 0.574021 0.906671
vt 0.574021 0.767872
vt 0.863476 0.765494
vt 0.863476 0.906671
vt 0.574086 0.906671
vt 0.574086 0.765494
vt 0.976754 0.764295
vt 0.976754 0.908190
vt 0.896988 0.908190
vt 0.896988 0.764295
vt 0.863476 0.767872
vt 0.863477 0.906671
vt 0.574086 0.906671
vt 0.574086 0.767872
vt 0.863476 0.765494
vt 0.863476 0.906671
vt 0.574086 0.906671
vt 0.574086 0.765494
vt 0.863412 0.767872
vt 0.863412 0.906671
vt 0.574021 0.906671
vt 0.574021 0.767872
vt 0.984915 0.898194
vt 0.984915 0.766412
vt 0.999314 0.766412
vt 0.999314 0.898194
vt 0.984915 0.898194
vt 0.984915 0.766412
vt 0.999314 0.766412
vt 0.999314 0.898194
vt 0.984915 0.898194
vt 0.984915 0.766412
vt 0.999314 0.766412
vt 0.999314 0.898194
vt 0.984915 0.898194
vt 0.984915 0.766412
vt 0.999314 0.766412
vt 0.999314 0.898194
vt 0.976754 0.764295
vt 0.976754 0.908190
vt 0.885924 0.908190
vt 0.885924 0.764295
vt 0.976754 0.761498
vt 0.976754 0.902348
vt 0.885924 0.902348
vt 0.885924 0.761498
vt 0.885924 0.902348
vt 0.885924 0.761498
vt 0.976754 0.761498
vt 0.976754 0.902348
vt 0.885924 0.902857
vt 0.885924 0.764295
vt 0.976754 0.764295
vt 0.976754 0.902857
vt 0.574085 0.906671
vt 0.574085 0.765494
vt 0.863412 0.765494
vt 0.863412 0.906671
vt 0.667367 0.906671
vt 0.577075 0.906671
vt 0.577075 0.767872
vt 0.667367 0.767872
vt 0.724549 0.765494
vt 0.724549 0.906671
vt 0.585750 0.906671
vt 0.585750 0.765494
vt 0.852409 0.767872
vt 0.852409 0.906671
vt 0.863348 0.765494
vt 0.863348 0.906671
vt 0.574021 0.906671
vt 0.574021 0.765494
vt 0.863348 0.767872
vt 0.863348 0.906671
vt 0.574021 0.906671
vt 0.574021 0.767872
vt 0.863476 0.765494
vt 0.863476 0.906671
vt 0.574086 0.906671
vt 0.574086 0.765494
vt 0.976754 0.764295
vt 0.976754 0.908190
vt 0.896988 0.908190
vt 0.896988 0.764295
vt 0.863476 0.767872
vt 0.863477 0.906671
vt 0.574086 0.906671
vt 0.574086 0.767872
vt 0.863476 0.765494
vt 0.863476 0.906671
vt 0.574086 0.906671
vt 0.574086 0.765494
vt 0.863412 0.767872
vt 0.863412 0.906671
vt 0.574021 0.906671
vt 0.574021 0.767872
vt 0.984915 0.898194
vt 0.984915 0.766412
vt 0.999314 0.766412
vt 0.999314 0.898194
vt 0.984915 0.898194
vt 0.984915 0.766412
vt 0.999314 0.766412
vt 0.999314 0.898194
vt 0.984915 0.898194
vt 0.984915 0.766412
vt 0.999314 0.766412
vt 0.999314 0.898194
vt 0.984915 0.898194
vt 0.984915 0.766412
vt 0.999314 0.766412
vt 0.999314 0.898194
vt 0.976754 0.764295
vt 0.976754 0.908190
vt 0.885924 0.908190
vt 0.885924 0.764295
vt 0.976754 0.761498
vt 0.976754 0.902348
vt 0.885924 0.902348
vt 0.885924 0.761498
vt 0.885924 0.902348
vt 0.885924 0.761498
vt 0.976754 0.761498
vt 0.976754 0.902348
vt 0.885924 0.902857
vt 0.885924 0.764295
vt 0.976754 0.764295
vt 0.976754 0.902857
vn 0.0055 -0.0259 -0.9996
vn 1.0000 0.0000 0.0000
vn -1.0000 0.0000 0.0000
vn 0.0000 0.0000 -1.0000
vn -0.0000 -0.7206 -0.6933
vn 0.0000 1.0000 0.0000
vn 0.0000 0.0000 1.0000
vn 0.0088 -0.0048 -0.9999
vn -0.9998 -0.0011 -0.0219
vn -0.9998 -0.0018 -0.0210
vn -0.0089 1.0000 0.0044
vn 0.0000 -1.0000 0.0000
vn 0.0064 0.0000 -1.0000
vn -0.0064 -0.0000 1.0000
vn 0.0123 -0.0248 0.9996
vn 0.9998 -0.0145 0.0153
vn 0.0258 0.0079 0.9996
vn -0.0056 -0.6525 0.7578
vn -0.9998 0.0145 -0.0153
vn 0.0044 0.7299 -0.6835
vn 0.9997 0.0013 0.0225
vn 0.9998 0.0019 0.0217
vn 0.0064 -0.9951 -0.0985
vn 0.0048 -0.9988 0.0496
vn -0.9999 -0.0056 0.0143
vn -0.0000 0.0985 -0.9951
vn -0.0052 0.9815 0.1915
vn 0.9998 -0.0207 0.0076
vn -0.0064 0.9951 0.0985
vn -0.0049 0.1099 0.9939
vn -0.9998 -0.0171 0.0063
vn 0.0045 0.1266 -0.9919
vn 0.9998 -0.0068 0.0173
vn -0.4406 -0.8969 -0.0377
vn 0.2804 -0.0375 -0.9591
vn -0.7143 -0.0681 0.6965
vn -0.9367 0.3023 -0.1767
vn 0.4230 0.9030 0.0748
vn 0.9088 -0.3131 0.2758
vn -0.0766 -0.8411 -0.5355
vn -0.9668 -0.0763 0.2441
vn -0.2331 0.4373 -0.8686
vn 0.1088 0.8471 0.5202
vn 0.3212 -0.4372 0.8400
vn -0.0641 -0.8517 -0.5202
vn -0.2475 0.5185 -0.8185
vn 0.2475 -0.5185 0.8185
vn 0.0641 0.8517 0.5202
vn 0.8956 -0.0901 0.4357
vn -0.4211 0.0000 0.9070
vn 0.2403 0.3394 -0.9094
vn 0.0286 0.9978 -0.0597
vn -0.8917 0.0766 -0.4461
vn -0.0124 -0.9999 0.0007
vn 0.9958 -0.0565 0.0716
vn 0.0700 0.6447 -0.7613
vn -0.0784 0.7654 0.6387
vn -0.9967 0.0415 -0.0704
vn 0.0620 -0.7962 -0.6018
vn 0.9975 -0.0452 0.0534
vn -0.0000 0.7631 0.6462
vn -0.0000 -0.7631 -0.6462
vn -0.9975 0.0452 -0.0534
usemtl None
s 1
f 56/1/1 16/2/1 1/3/1 54/4/1
f 14/5/2 6/6/2 15/7/2 4/8/2
f 5/9/3 18/10/3 3/11/3 17/12/3
f 17/13/4 3/14/4 4/15/4 15/16/4
f 55/17/5 53/18/5 13/19/5 12/20/5
f 18/21/6 14/22/6 4/23/6 3/24/6
f 5/25/7 7/26/7 10/27/7 6/28/7
f 59/29/8 57/30/8 16/2/8 56/1/8
f 57/30/9 58/31/9 11/32/9 16/33/9
f 16/34/10 11/35/10 2/36/10 1/37/10
f 54/38/11 1/39/11 2/40/11 52/41/11
f 10/42/12 7/43/12 9/44/12 8/45/12
f 6/46/2 10/47/2 8/48/2 15/49/2
f 17/50/4 15/51/4 8/52/4 9/53/4
f 7/54/3 5/55/3 17/56/3 9/57/3
f 5/58/7 6/59/7 14/60/7 18/61/7
f 39/62/13 40/63/13 41/64/13 42/65/13
f 40/66/3 43/67/3 44/68/3 41/69/3
f 45/70/6 46/71/6 47/72/6 48/73/6
f 41/74/12 42/75/12 49/76/12 44/77/12
f 43/78/14 50/79/14 49/80/14 44/81/14
f 44/82/14 49/83/14 46/84/14 45/85/14
f 50/86/2 39/87/2 42/88/2 49/89/2
f 42/90/13 41/91/13 48/92/13 47/93/13
f 40/94/12 39/95/12 50/96/12 43/97/12
f 49/98/2 42/99/2 47/100/2 46/101/2
f 41/102/3 44/103/3 45/104/3 48/105/3
f 58/31/15 60/106/15 51/107/15 11/108/15
f 55/109/16 59/110/16 60/111/16 53/112/16
f 11/108/17 51/107/17 52/113/17 2/114/17
f 13/115/18 53/116/18 60/106/18 58/31/18
f 12/117/19 13/118/19 58/31/19 57/30/19
f 55/119/20 12/120/20 57/30/20 59/29/20
f 59/110/21 56/121/21 51/122/21 60/111/21
f 56/121/22 54/123/22 52/124/22 51/122/22
f 92/125/23 86/126/23 81/127/23 90/128/23
f 95/129/24 93/130/24 86/126/24 92/125/24
f 93/130/25 94/131/25 83/132/25 86/133/25
f 86/134/3 83/135/3 82/136/3 81/137/3
f 90/138/26 81/139/26 82/140/26 88/141/26
f 94/131/27 96/142/27 87/143/27 83/144/27
f 91/145/28 95/146/28 96/147/28 89/148/28
f 83/144/29 87/143/29 88/149/29 82/150/29
f 85/151/30 89/152/30 96/142/30 94/131/30
f 84/153/31 85/154/31 94/131/31 93/130/31
f 91/155/32 84/156/32 93/130/32 95/129/32
f 95/146/33 92/157/33 87/158/33 96/147/33
f 92/157/2 90/159/2 88/160/2 87/158/2
usemtl None.001
f 19/161/34 20/162/34 21/163/34 22/164/34
f 23/165/35 24/166/35 20/167/35 19/168/35
f 22/169/36 21/170/36 25/171/36 26/172/36
f 23/165/37 19/168/37 22/173/37 26/174/37
f 24/175/38 23/176/38 26/177/38 25/178/38
f 20/179/39 24/180/39 25/181/39 21/182/39
f 22/183/40 21/184/40 31/185/40 32/186/40
f 28/187/41 27/188/41 29/189/41 30/190/41
f 26/191/42 22/192/42 32/193/42 33/194/42
f 25/195/43 26/196/43 33/197/43 34/198/43
f 21/199/44 25/200/44 34/201/44 31/202/44
f 35/203/41 36/204/41 32/205/41 31/206/41
f 36/207/41 37/208/41 33/209/41 32/210/41
f 38/211/41 35/212/41 31/213/41 34/214/41
f 37/215/41 38/216/41 34/217/41 33/218/41
f 27/219/45 28/220/45 36/221/45 35/222/45
f 28/223/46 30/224/46 37/225/46 36/226/46
f 29/227/47 27/228/47 35/229/47 38/230/47
f 30/231/48 29/232/48 38/233/48 37/234/48
f 61/235/49 62/236/49 63/237/49 64/238/49
f 65/239/50 66/240/50 62/241/50 61/242/50
f 64/243/51 63/244/51 67/245/51 68/246/51
f 65/239/52 61/242/52 64/247/52 68/248/52
f 66/249/53 65/250/53 68/251/53 67/252/53
f 62/253/54 66/254/54 67/255/54 63/256/54
f 64/257/55 63/258/55 73/259/55 74/260/55
f 70/261/56 69/262/56 71/263/56 72/264/56
f 68/265/57 64/266/57 74/267/57 75/268/57
f 67/269/58 68/270/58 75/271/58 76/272/58
f 63/273/59 67/274/59 76/275/59 73/276/59
f 77/277/56 78/278/56 74/279/56 73/280/56
f 78/281/56 79/282/56 75/283/56 74/284/56
f 80/285/56 77/286/56 73/287/56 76/288/56
f 79/289/56 80/290/56 76/291/56 75/292/56
f 69/293/60 70/294/60 78/295/60 77/296/60
f 70/297/61 72/298/61 79/299/61 78/300/61
f 71/301/62 69/302/62 77/303/62 80/304/62
f 72/305/63 71/306/63 80/307/63 79/308/63
