# Blender v2.80 (sub 51) OBJ File: ''
# www.blender.org
mtllib Runner_osmx2.mtl
o runner(1)
v 2.191334 1.941483 -1.265776
v 1.025528 1.935827 -1.166961
v 1.062330 1.591669 -0.752472
v 2.228136 1.597324 -0.851286
v -1.676679 1.941483 -1.779097
v -1.426178 1.039908 -2.481459
v -1.569816 0.695749 -2.090915
v -1.820316 1.597324 -1.388554
v -0.267430 -5.095774 1.529130
v -0.420540 -4.516563 2.682851
v -0.235904 -1.696498 1.291577
v -0.082795 -2.275709 0.137855
v 1.214863 -1.986104 0.241388
v -1.362539 -1.986104 -0.100658
v -1.362539 -1.026104 -0.100658
v 1.214863 -1.026104 0.241388
v -1.282214 4.413897 1.574469
v 0.700403 4.413897 1.837581
v 0.963515 4.413897 -0.145037
v -1.019102 4.413897 -0.408149
v -0.326499 1.034250 -2.081993
v -0.576999 1.935827 -1.379631
v -0.720637 1.591669 -0.989088
v -0.470136 0.690094 -1.691449
v 0.868162 -4.516563 2.853873
v 1.021271 -5.095774 1.700152
v 0.963515 4.813896 -0.145036
v 0.700403 4.813896 1.837581
v -1.282214 4.813896 1.574469
v -1.019102 4.813896 -0.408149
v -1.533562 -1.986104 1.188044
v -1.533562 -1.026104 1.188044
v 1.170000 -0.354649 1.176041
v 2.465340 -0.348366 1.066247
v 2.443369 0.271097 0.842481
v 1.148029 0.264814 0.952274
v -1.278425 -6.035795 -0.734479
v 0.010276 -6.035795 -0.563456
v -0.051269 -5.095774 -0.099698
v -1.339970 -5.095774 -0.270721
v 2.258610 0.387857 -1.330595
v 2.323762 1.389608 -0.504610
v 2.378217 -0.730653 0.016496
v 1.082877 -0.736937 0.126289
v 2.494158 2.306288 1.558171
v 1.198817 2.300003 1.667965
v -2.003054 1.389608 -1.078819
v -1.724720 0.387858 -1.859221
v -2.191543 -0.730653 -0.589955
v -2.469877 0.271097 0.190446
v -0.502854 0.381575 -1.415370
v -0.781188 1.383324 -0.634968
v -1.248010 0.264814 0.634297
v -0.969676 -0.736937 -0.146104
v -1.533562 2.813896 1.188044
v 1.043840 2.813896 1.530090
v 1.214863 2.813896 0.241388
v -1.362539 2.813896 -0.100657
v -0.890101 -0.117474 -0.356394
v -2.111967 -0.111191 -0.800245
v -2.268093 2.543463 -0.332865
v -1.046227 2.537178 0.110987
v -0.328975 -6.035795 1.992887
v -0.482085 -5.456585 3.146609
v 1.060906 -0.117474 -0.097476
v 2.356246 -0.111191 -0.207271
v -1.019102 2.813896 -0.408149
v -1.282214 2.813896 1.574469
v 2.231009 0.645977 -1.641462
v 2.296160 1.647726 -0.815477
v 0.959726 -6.035795 2.163910
v 0.806617 -5.456585 3.317631
v -1.125316 -5.456585 -1.888200
v -1.186861 -4.516563 -1.424442
v -1.895326 1.647726 -1.371727
v -0.673460 1.641443 -0.927875
v -0.395126 0.639692 -1.708277
v -1.616992 0.645977 -2.152128
v -1.327585 -0.354649 0.844587
v -1.483711 2.300003 1.311968
v -2.549451 -0.348366 0.400736
v -2.705578 2.306288 0.868116
v 1.043840 -1.026104 1.530090
v 1.043840 -1.986104 1.530089
v 1.028422 1.383324 -0.394816
v 0.963271 0.381575 -1.220801
v 1.205907 -2.275709 0.308878
v 1.003694 0.690094 -1.495858
v 2.169499 0.695749 -1.594673
v 1.000820 1.641443 -0.705683
v 0.935669 0.639692 -1.531668
v 0.101841 -4.516563 -1.253419
v -0.082795 -1.696498 0.137855
v -0.235904 -2.275709 1.291577
v -1.524606 -2.275709 1.120554
v -1.371496 -1.696498 -0.033167
v 0.700403 2.813896 1.837581
v 0.963515 2.813896 -0.145037
v 0.163386 -5.456585 -1.717177
v 2.132697 1.039908 -2.009162
v 2.385062 2.543463 0.284653
v 1.089723 2.537178 0.394447
v 0.966892 1.034250 -1.910347
v 1.052797 -1.696498 1.462599
vt 0.684506 0.921583
vt 0.684506 0.979493
vt 0.663984 0.979359
vt 0.663984 0.921450
vt 0.760141 0.395974
vt 0.760141 0.453368
vt 0.733605 0.453974
vt 0.733605 0.396580
vt 0.076795 0.429089
vt 0.011968 0.429089
vt 0.011968 0.273174
vt 0.076795 0.273174
vt 0.295213 0.249415
vt 0.165559 0.249415
vt 0.165559 0.201908
vt 0.295213 0.201908
vt 0.674203 0.233625
vt 0.674203 0.134631
vt 0.773928 0.134631
vt 0.773928 0.233625
vt 0.264185 0.960167
vt 0.264185 0.902772
vt 0.290721 0.903378
vt 0.290721 0.960773
vt 0.102159 0.912497
vt 0.102159 0.848151
vt 0.160580 0.848151
vt 0.160580 0.912497
vt 0.189495 0.706765
vt 0.289229 0.706765
vt 0.289229 0.726564
vt 0.189495 0.726564
vt 0.674203 0.110873
vt 0.674203 0.011879
vt 0.773928 0.011879
vt 0.773928 0.110873
vt 0.383977 0.249464
vt 0.319149 0.249464
vt 0.319149 0.201947
vt 0.383977 0.201947
vt 0.595923 0.293542
vt 0.659197 0.295774
vt 0.655571 0.326104
vt 0.592298 0.323872
vt 0.472740 0.461161
vt 0.407913 0.461161
vt 0.407913 0.414176
vt 0.472740 0.414176
vt 0.011968 0.712944
vt 0.076200 0.711478
vt 0.076200 0.797102
vt 0.011968 0.798568
vt 0.585440 0.273222
vt 0.648713 0.275454
vt 0.659197 0.427707
vt 0.595923 0.425475
vt 0.407913 0.812972
vt 0.472145 0.814438
vt 0.472145 0.900063
vt 0.407913 0.898596
vt 0.718031 0.689315
vt 0.782263 0.687849
vt 0.782263 0.773473
vt 0.718031 0.774939
vt 0.808211 0.609881
vt 0.808211 0.481190
vt 0.873032 0.481190
vt 0.873032 0.609881
vt 0.594369 0.511592
vt 0.657677 0.512430
vt 0.660624 0.644331
vt 0.597317 0.643492
vt 0.076795 0.481060
vt 0.011968 0.481060
vt 0.383887 0.725974
vt 0.319062 0.725785
vt 0.319152 0.662679
vt 0.383977 0.662868
vt 0.289229 0.603812
vt 0.189495 0.603812
vt 0.189495 0.524617
vt 0.289229 0.524617
vt 0.011968 0.693184
vt 0.076200 0.691718
vt 0.650267 0.196088
vt 0.585440 0.196088
vt 0.585440 0.150036
vt 0.650267 0.150036
vt 0.011968 0.637558
vt 0.075276 0.636719
vt 0.078223 0.667121
vt 0.014915 0.667960
vt 0.319149 0.273222
vt 0.383977 0.273222
vt 0.383977 0.325194
vt 0.319149 0.325194
vt 0.100732 0.273174
vt 0.165559 0.273174
vt 0.165559 0.325145
vt 0.100732 0.325145
vt 0.944467 0.908644
vt 0.944467 0.971487
vt 0.893713 0.980088
vt 0.893713 0.917245
vt 0.797865 0.011879
vt 0.861216 0.012351
vt 0.861216 0.145912
vt 0.797865 0.145441
vt 0.407913 0.513141
vt 0.471264 0.512669
vt 0.471264 0.646231
vt 0.407913 0.646702
vt 0.703076 0.273222
vt 0.703076 0.372215
vt 0.683133 0.372215
vt 0.683133 0.273222
vt 0.806199 0.796781
vt 0.806199 0.668090
vt 0.871020 0.668089
vt 0.871020 0.796781
vt 0.570433 0.613123
vt 0.507160 0.615355
vt 0.507160 0.483422
vt 0.570433 0.481190
vt 0.189495 0.504818
vt 0.289229 0.504818
vt 0.011968 0.011879
vt 0.141623 0.011879
vt 0.141623 0.059386
vt 0.011968 0.059386
vt 0.496223 0.793213
vt 0.561048 0.793213
vt 0.560906 0.845595
vt 0.496081 0.845595
vt 0.806199 0.971582
vt 0.806199 0.908739
vt 0.856952 0.917340
vt 0.856952 0.980183
vt 0.658601 0.877932
vt 0.594369 0.876466
vt 0.594369 0.790841
vt 0.658601 0.792308
vt 0.141623 0.249415
vt 0.011968 0.249415
vt 0.585440 0.011879
vt 0.650267 0.011879
vt 0.561504 0.457431
vt 0.496676 0.457431
vt 0.496676 0.411379
vt 0.561504 0.411379
vt 0.453591 0.923821
vt 0.453591 0.980380
vt 0.407913 0.988121
vt 0.407913 0.931562
vt 0.559950 0.633443
vt 0.496676 0.635675
vt 0.503534 0.585025
vt 0.566807 0.582793
vt 0.967509 0.069789
vt 0.967509 0.011879
vt 0.988032 0.012013
vt 0.988032 0.069922
vt 0.472740 0.249464
vt 0.407913 0.249464
vt 0.407913 0.201947
vt 0.472740 0.201947
vt 0.658601 0.897691
vt 0.594369 0.896225
vt 0.254322 0.429089
vt 0.189495 0.429089
vt 0.189495 0.273174
vt 0.254322 0.273174
vt 0.953183 0.273222
vt 0.953183 0.337568
vt 0.895541 0.337568
vt 0.895541 0.273222
vt 0.165559 0.011879
vt 0.295213 0.011879
vt 0.943573 0.011879
vt 0.943573 0.076225
vt 0.885152 0.076225
vt 0.885152 0.011879
vt 0.946294 0.369928
vt 0.946294 0.432770
vt 0.895541 0.424169
vt 0.895541 0.361326
vt 0.734537 0.746848
vt 0.765757 0.801565
vt 0.424193 0.484920
vt 0.454984 0.540891
vt 0.319152 0.505056
vt 0.383977 0.504867
vt 0.383921 0.520145
vt 0.319096 0.520334
vt 0.704503 0.481190
vt 0.704503 0.580183
vt 0.684560 0.580183
vt 0.684560 0.481190
vt 0.383921 0.781455
vt 0.319096 0.781266
vt 0.318854 0.715061
vt 0.383679 0.715250
vt 0.894957 0.732435
vt 0.894957 0.668090
vt 0.952599 0.668089
vt 0.952599 0.732435
vt 0.597317 0.481190
vt 0.660624 0.482029
vt 0.319009 0.820491
vt 0.383835 0.820491
vt 0.383977 0.872874
vt 0.319151 0.872874
vt 0.189495 0.627570
vt 0.289229 0.627570
vt 0.254322 0.481060
vt 0.189495 0.481060
vt 0.709669 0.396580
vt 0.709669 0.453974
vt 0.683133 0.453368
vt 0.683133 0.395974
vt 0.383679 0.586350
vt 0.318854 0.586539
vt 0.546834 0.907054
vt 0.546834 0.969897
vt 0.496081 0.961296
vt 0.496081 0.898453
vt 0.869777 0.820637
vt 0.869777 0.884980
vt 0.806199 0.884883
vt 0.806199 0.820539
vt 0.797865 0.234112
vt 0.797865 0.169768
vt 0.861443 0.169671
vt 0.861443 0.234015
vt 0.254316 0.750322
vt 0.254316 0.879014
vt 0.189495 0.879014
vt 0.189495 0.750322
vt 0.383397 0.886695
vt 0.318571 0.886695
vt 0.407913 0.793213
vt 0.472145 0.794679
vt 0.102159 0.533040
vt 0.165510 0.532568
vt 0.165510 0.666130
vt 0.102159 0.666601
vt 0.763709 0.913427
vt 0.763709 0.969986
vt 0.718031 0.977727
vt 0.718031 0.921168
vt 0.383296 0.901973
vt 0.318470 0.901973
vt 0.319062 0.575815
vt 0.383887 0.575625
vt 0.383977 0.638731
vt 0.319152 0.638921
vt 0.014915 0.505657
vt 0.078223 0.504819
vt 0.543897 0.717434
vt 0.543897 0.660039
vt 0.570433 0.659434
vt 0.570433 0.716828
vt 0.165559 0.481060
vt 0.100732 0.481060
vt 0.028474 0.770477
vt 0.059694 0.825193
vt 0.118439 0.504819
vt 0.149230 0.560790
vt 0.407913 0.273222
vt 0.472740 0.273222
vt 0.561504 0.199818
vt 0.496676 0.199818
vt 0.496676 0.152834
vt 0.561504 0.152834
vt 0.561587 0.874694
vt 0.496762 0.874694
vt 0.496661 0.859417
vt 0.561486 0.859417
vt 0.718031 0.669556
vt 0.782263 0.668089
vt 0.942646 0.584134
vt 0.942646 0.640692
vt 0.896968 0.632951
vt 0.896968 0.576392
vt 0.407913 0.011879
vt 0.472740 0.011879
vt 0.507638 0.670461
vt 0.507638 0.769454
vt 0.407913 0.769454
vt 0.407913 0.670461
vt 0.496676 0.273222
vt 0.561504 0.273222
vt 0.784274 0.481190
vt 0.784274 0.580183
vt 0.011968 0.913298
vt 0.011968 0.848952
vt 0.070389 0.848952
vt 0.070389 0.913298
vt 0.319149 0.011879
vt 0.383977 0.011879
vt 0.496676 0.011879
vt 0.561504 0.011879
vt 0.102159 0.690360
vt 0.165510 0.690831
vt 0.165510 0.824393
vt 0.102159 0.823921
vt 0.640047 0.929191
vt 0.640047 0.985749
vt 0.594369 0.978008
vt 0.594369 0.921450
vt 0.987105 0.576392
vt 0.987105 0.634302
vt 0.966582 0.634436
vt 0.966582 0.576526
vt 0.383977 0.481108
vt 0.319149 0.481108
vt 0.951356 0.820539
vt 0.951356 0.884885
vt 0.893713 0.884885
vt 0.893713 0.820539
vt 0.966958 0.227714
vt 0.966958 0.169804
vt 0.987481 0.169671
vt 0.987481 0.227580
vt 0.383977 0.796733
vt 0.319152 0.796544
vt 0.782847 0.273222
vt 0.782847 0.372215
vn 0.0501 0.7706 0.6354
vn -0.9399 0.0048 -0.3414
vn -0.9913 0.0000 -0.1316
vn 0.1316 0.0000 -0.9913
vn 0.0000 1.0000 0.0000
vn 0.9399 -0.0048 0.3414
vn 0.0586 0.8953 -0.4417
vn 0.9913 -0.0000 0.1316
vn 0.0777 0.3412 0.9368
vn -0.1178 -0.4455 0.8875
vn 0.9964 0.0048 -0.0845
vn 0.0682 -0.6373 0.7676
vn 0.0839 -0.1824 0.9796
vn 0.3365 0.1824 -0.9238
vn -0.0107 -0.9832 -0.1822
vn 0.1178 -0.4455 -0.8875
vn -0.0777 -0.3411 -0.9368
vn 0.2660 0.6373 -0.7232
vn -0.0000 -1.0000 0.0000
vn -0.3365 -0.1824 0.9238
vn -0.1316 -0.0000 0.9913
vn 0.1207 0.9400 -0.3191
vn -0.0682 0.6373 -0.7676
vn -0.9964 -0.0048 0.0845
vn -0.1178 0.4455 0.8875
vn -0.2660 -0.6373 0.7232
vn 0.2141 -0.7706 -0.6003
vn 0.0586 -0.8953 -0.4417
vn -0.0586 -0.8953 0.4417
vn -0.0501 -0.7706 -0.6354
vn -0.0586 0.8953 0.4417
vn 0.3194 -0.3412 -0.8841
vn -0.0333 0.9400 -0.3396
vn -0.3194 0.3411 0.8841
vn 0.0107 0.9832 0.1822
vn -0.0578 0.9832 0.1731
vn 0.0578 -0.9832 -0.1731
vn -0.0839 0.1824 -0.9796
vn 0.0333 -0.9400 0.3396
vn 0.1178 0.4455 -0.8875
vn -0.2141 0.7706 0.6003
vn -0.1207 -0.9400 0.3191
usemtl None
s 1
f 1/1/1 2/2/1 3/3/1 4/4/1
f 5/5/2 6/6/2 7/7/2 8/8/2
f 9/9/3 10/10/3 11/11/3 12/12/3
f 13/13/4 14/14/4 15/15/4 16/16/4
f 17/17/5 18/18/5 19/19/5 20/20/5
f 21/21/6 22/22/6 23/23/6 24/24/6
f 10/25/7 25/26/7 26/27/7 9/28/7
f 18/29/8 19/30/8 27/31/8 28/32/8
f 29/33/5 28/34/5 27/35/5 30/36/5
f 14/37/3 31/38/3 32/39/3 15/40/3
f 33/41/9 34/42/9 35/43/9 36/44/9
f 37/45/10 38/46/10 39/47/10 40/48/10
f 41/49/11 42/50/11 35/51/11 43/52/11
f 44/53/12 43/54/12 35/43/12 36/44/12
f 33/41/13 34/42/13 45/55/13 46/56/13
f 47/57/2 48/58/2 49/59/2 50/60/2
f 51/61/6 52/62/6 53/63/6 54/64/6
f 55/65/5 56/66/5 57/67/5 58/68/5
f 59/69/14 60/70/14 61/71/14 62/72/14
f 63/73/3 64/74/3 10/10/3 9/9/3
f 65/75/15 66/76/15 34/77/15 33/78/15
f 67/79/3 68/80/3 17/81/3 20/82/3
f 69/83/11 70/84/11 42/50/11 41/49/11
f 71/85/16 63/86/16 9/87/16 26/88/16
f 65/89/17 66/90/17 43/91/17 44/92/17
f 72/93/8 71/94/8 26/95/8 25/96/8
f 73/97/3 37/98/3 40/99/3 74/100/3
f 75/101/18 76/102/18 77/103/18 78/104/18
f 79/105/6 59/106/6 62/107/6 80/108/6
f 60/109/2 81/110/2 82/111/2 61/112/2
f 19/113/4 20/114/4 30/115/4 27/116/4
f 15/117/19 16/118/19 83/119/19 32/120/19
f 81/121/20 79/122/20 80/123/20 82/124/20
f 20/82/3 17/81/3 29/125/3 30/126/3
f 31/127/21 84/128/21 83/129/21 32/130/21
f 50/131/22 53/132/22 59/133/22 60/134/22
f 85/135/23 42/136/23 41/137/23 86/138/23
f 85/139/24 86/140/24 44/141/24 36/142/24
f 32/130/21 83/129/21 56/143/21 55/144/21
f 26/88/16 9/87/16 12/145/16 87/146/16
f 64/147/25 72/148/25 25/149/25 10/150/25
f 88/151/12 89/152/12 4/153/12 3/154/12
f 49/155/26 54/156/26 53/157/26 50/158/26
f 6/159/27 21/160/27 24/161/27 7/162/27
f 84/163/8 13/164/8 16/165/8 83/166/8
f 90/167/24 91/168/24 86/140/24 85/139/24
f 39/169/8 92/170/8 93/171/8 94/172/8
f 74/173/28 92/174/28 39/175/28 40/176/28
f 16/16/4 15/15/4 58/177/4 57/178/4
f 63/179/29 71/180/29 72/181/29 64/182/29
f 48/183/26 51/184/26 52/185/26 47/186/26
f 59/187/6 53/63/6 54/64/6
f 53/63/6 79/188/6 54/64/6
f 49/189/2 81/110/2 60/109/2
f 81/110/2 50/190/2 60/109/2
f 78/191/27 77/192/27 51/193/27 48/194/27
f 17/195/21 18/196/21 28/197/21 29/198/21
f 86/199/30 41/200/30 43/201/30 44/202/30
f 95/203/31 94/204/31 93/205/31 96/206/31
f 60/70/32 59/69/32 54/207/32 49/208/32
f 36/209/33 35/210/33 66/211/33 65/212/33
f 97/213/8 98/214/8 19/30/8 18/29/8
f 81/121/34 79/122/34 53/157/34 50/158/34
f 38/215/8 99/216/8 92/170/8 39/169/8
f 100/217/11 1/218/11 4/219/11 89/220/11
f 48/194/27 51/193/27 54/221/27 49/222/27
f 90/223/23 70/224/23 69/225/23 91/226/23
f 46/227/35 45/228/35 101/229/35 102/230/35
f 82/231/36 80/232/36 62/233/36 61/234/36
f 14/235/19 13/236/19 84/237/19 31/238/19
f 42/239/1 85/240/1 36/209/1 35/210/1
f 75/241/2 78/242/2 48/58/2 47/57/2
f 65/243/24 33/244/24 46/245/24 102/246/24
f 5/247/18 22/248/18 21/249/18 6/250/18
f 70/251/1 90/252/1 85/240/1 42/239/1
f 60/253/37 59/254/37 79/255/37 81/256/37
f 66/90/38 65/89/38 102/257/38 101/258/38
f 34/77/39 33/78/39 44/202/39 43/201/39
f 2/259/24 103/260/24 88/261/24 3/262/24
f 74/100/3 40/99/3 95/263/3 96/264/3
f 66/265/11 35/51/11 43/52/11
f 35/51/11 34/266/11 43/52/11
f 44/267/24 33/244/24 65/243/24
f 33/244/24 36/268/24 65/243/24
f 40/48/10 39/47/10 94/269/10 95/270/10
f 99/271/40 73/272/40 74/273/40 92/274/40
f 76/275/41 75/276/41 47/277/41 52/278/41
f 77/279/6 76/280/6 52/62/6 51/61/6
f 79/255/42 81/256/42 49/222/42 54/221/42
f 2/281/23 1/282/23 100/283/23 103/284/23
f 83/166/8 16/165/8 57/285/8 56/286/8
f 67/287/19 98/288/19 97/289/19 68/290/19
f 10/150/25 25/149/25 104/291/25 11/292/25
f 68/293/21 97/294/21 18/196/21 17/195/21
f 11/295/7 104/296/7 87/297/7 12/298/7
f 15/40/3 32/39/3 55/299/3 58/300/3
f 92/274/40 74/273/40 96/301/40 93/302/40
f 34/303/11 66/304/11 101/305/11 45/306/11
f 7/307/26 24/308/26 23/309/26 8/310/26
f 103/311/30 100/312/30 89/313/30 88/314/30
f 25/96/8 26/95/8 87/315/8 104/316/8
f 73/317/28 99/318/28 38/319/28 37/320/28
f 22/321/41 5/322/41 8/323/41 23/324/41
f 91/325/30 69/326/30 41/200/30 86/199/30
f 19/113/4 98/327/4 67/328/4 20/114/4
f 52/278/41 47/277/41 50/131/41 53/132/41
