# Blender v2.79 (sub 0) OBJ File: 'Guitar.blend'
# www.blender.org
mtllib body_2.mtl
o Cube_Cube.001
v 0.021409 0.097887 0.181130
v 0.021409 0.348163 0.364893
v -0.021409 0.097887 0.181130
v -0.021409 0.348163 0.364893
v 0.021409 0.123228 0.146617
v 0.021409 0.373504 0.330380
v -0.021409 0.123228 0.146617
v -0.021409 0.373504 0.330380
v 0.043244 0.067457 0.185876
v 0.043244 0.093319 0.204866
v -0.043244 0.067457 0.185876
v -0.043244 0.093319 0.204866
v 0.043244 0.118644 0.116162
v 0.043244 0.144506 0.135151
v -0.043244 0.118644 0.116162
v -0.043244 0.144506 0.135151
v 0.012589 -0.518963 -0.284655
v 0.012589 0.082833 0.170077
v -0.012589 -0.518963 -0.284655
v -0.012589 0.082833 0.170077
v 0.012589 -0.500393 -0.309946
v 0.012589 0.108174 0.135564
v -0.012589 -0.500393 -0.309946
v -0.012589 0.108174 0.135564
v -0.012589 -0.538358 -0.337821
v 0.012590 -0.538358 -0.337821
v 0.026433 0.097887 -0.181131
v 0.026433 0.348163 -0.364893
v -0.016385 0.097887 -0.181130
v -0.016385 0.348163 -0.364893
v 0.026433 0.123228 -0.146617
v 0.026433 0.373504 -0.330380
v -0.016385 0.123228 -0.146617
v -0.016385 0.373504 -0.330380
v 0.048268 0.067457 -0.185876
v 0.048268 0.093319 -0.204866
v -0.038220 0.067457 -0.185876
v -0.038220 0.093319 -0.204866
v 0.048268 0.118644 -0.116162
v 0.048268 0.144506 -0.135151
v -0.038220 0.118644 -0.116162
v -0.038220 0.144506 -0.135151
v 0.017613 -0.518963 0.284655
v 0.017613 0.082833 -0.170077
v -0.007565 -0.518963 0.284655
v -0.007566 0.082833 -0.170077
v 0.017613 -0.500393 0.309946
v 0.017613 0.108174 -0.135564
v -0.007565 -0.500393 0.309946
v -0.007566 0.108174 -0.135564
v -0.007565 -0.538358 0.337821
v 0.017613 -0.538358 0.337821
vt 0.650132 0.051461
vt 0.650132 0.549210
vt 0.718772 0.549210
vt 0.718772 0.051461
vt 0.787413 0.549210
vt 0.787412 0.051461
vt 0.856053 0.549209
vt 0.856052 0.051461
vt 0.924693 0.549209
vt 0.924692 0.051461
vt 0.856053 0.617850
vt 0.924693 0.617850
vt 0.554213 0.973023
vt 0.479868 0.973023
vt 0.479868 0.772623
vt 0.554213 0.772623
vt 0.479868 0.572222
vt 0.554213 0.572222
vt 0.479868 0.371822
vt 0.554213 0.371822
vt 0.479868 0.171422
vt 0.554213 0.171422
vt 0.754613 0.572222
vt 0.754613 0.772623
vt 0.279467 0.772623
vt 0.279467 0.572223
vt 0.107493 0.083361
vt 0.093707 0.982544
vt 0.063691 0.982084
vt 0.077475 0.082901
vt 0.212330 0.083379
vt 0.225817 0.982566
vt 0.174769 0.982630
vt 0.174924 0.083398
vt 0.144756 0.982625
vt 0.144900 0.083394
vt 0.144921 0.027241
vt 0.078510 0.015431
vt 0.108528 0.015891
vt 0.174927 0.027248
vt 0.650132 0.051461
vt 0.718772 0.051461
vt 0.718772 0.549210
vt 0.650132 0.549210
vt 0.787412 0.051461
vt 0.787413 0.549210
vt 0.856052 0.051461
vt 0.856053 0.549209
vt 0.924692 0.051461
vt 0.924693 0.549209
vt 0.856053 0.617850
vt 0.924693 0.617850
vt 0.554213 0.973023
vt 0.554213 0.772623
vt 0.479868 0.772623
vt 0.479868 0.973023
vt 0.554213 0.572222
vt 0.479868 0.572222
vt 0.554213 0.371822
vt 0.479868 0.371822
vt 0.554213 0.171422
vt 0.479868 0.171422
vt 0.754613 0.772623
vt 0.754613 0.572222
vt 0.279467 0.572223
vt 0.279467 0.772623
vt 0.107493 0.083361
vt 0.077475 0.082901
vt 0.063691 0.982084
vt 0.093707 0.982544
vt 0.212330 0.083379
vt 0.174924 0.083398
vt 0.174769 0.982630
vt 0.225817 0.982566
vt 0.144900 0.083394
vt 0.144756 0.982625
vt 0.144921 0.027241
vt 0.108528 0.015891
vt 0.078510 0.015431
vt 0.174927 0.027248
vn 0.0000 -0.5918 0.8061
vn -1.0000 -0.0000 0.0000
vn 0.0000 0.5918 -0.8061
vn 1.0000 0.0000 -0.0000
vn -0.0000 0.8061 0.5918
vn 0.0000 -0.8061 -0.5918
vn -0.0000 -0.6029 0.7978
vn 0.0000 0.5907 -0.8069
vn 0.0000 -0.9394 0.3427
vn -0.0000 -0.5918 -0.8061
vn -0.0000 0.5918 0.8061
vn 0.0000 0.8061 -0.5918
vn 0.0000 -0.8061 0.5918
vn -0.0000 -0.6029 -0.7978
vn 0.0000 0.5907 0.8069
vn 0.0000 -0.9394 -0.3427
usemtl None
s off
f 1/1/1 2/2/1 4/3/1 3/4/1
f 3/4/2 4/3/2 8/5/2 7/6/2
f 7/6/3 8/5/3 6/7/3 5/8/3
f 5/8/4 6/7/4 2/9/4 1/10/4
f 8/11/5 4/12/5 2/9/5 6/7/5
f 9/13/1 10/14/1 12/15/1 11/16/1
f 11/16/2 12/15/2 16/17/2 15/18/2
f 15/18/3 16/17/3 14/19/3 13/20/3
f 13/20/4 14/19/4 10/21/4 9/22/4
f 11/16/6 15/18/6 13/23/6 9/24/6
f 16/17/5 12/15/5 10/25/5 14/26/5
f 17/27/7 18/28/7 20/29/7 19/30/7
f 19/31/2 20/32/2 24/33/2 23/34/2
f 23/34/8 24/33/8 22/35/8 21/36/8
f 21/36/4 22/35/4 18/28/4 17/27/4
f 21/36/4 17/27/4 26/37/4
f 19/30/9 25/38/9 26/39/9 17/27/9
f 19/31/2 23/34/2 25/40/2
f 23/34/3 21/36/3 26/37/3 25/40/3
f 27/41/10 29/42/10 30/43/10 28/44/10
f 29/42/2 33/45/2 34/46/2 30/43/2
f 33/45/11 31/47/11 32/48/11 34/46/11
f 31/47/4 27/49/4 28/50/4 32/48/4
f 34/51/12 32/48/12 28/50/12 30/52/12
f 35/53/10 37/54/10 38/55/10 36/56/10
f 37/54/2 41/57/2 42/58/2 38/55/2
f 41/57/11 39/59/11 40/60/11 42/58/11
f 39/59/4 35/61/4 36/62/4 40/60/4
f 37/54/13 35/63/13 39/64/13 41/57/13
f 42/58/12 40/65/12 36/66/12 38/55/12
f 43/67/14 45/68/14 46/69/14 44/70/14
f 45/71/2 49/72/2 50/73/2 46/74/2
f 49/72/15 47/75/15 48/76/15 50/73/15
f 47/75/4 43/67/4 44/70/4 48/76/4
f 47/75/4 52/77/4 43/67/4
f 45/68/16 43/67/16 52/78/16 51/79/16
f 45/71/2 51/80/2 49/72/2
f 49/72/11 51/80/11 52/77/11 47/75/11
