{
  "asset": {
    "version": "2.0",
    "generator": "THREE.GLTFExporter"
  },
  "scenes": [
    {
      "nodes": [
        6,
        7
      ]
    }
  ],
  "scene": 0,
  "nodes": [
    {
      "mesh": 0
    },
    {
      "mesh": 1
    },
    {
      "matrix": [
        1.9664290028804894e-19,
        0,
        -0.0008856008924623108,
        0,
        0,
        0.0008856008924623108,
        0,
        0,
        0.0008856008924623108,
        0,
        1.9664290028804894e-19,
        0,
        0,
        0,
        0,
        1
      ],
      "mesh": 2
    },
    {
      "matrix": [
        0.999955508137012,
        0.009432260853681788,
        0.00011917062739987129,
        0,
        -0.009433013646249684,
        0.9998757076508701,
        0.01263279475102019,
        0,
        0,
        -0.012633356832601464,
        0.9999201959632278,
        0,
        0.95,
        -0.7017930663572524,
        -2.8,
        1
      ],
      "children": [
        1,
        2
      ]
    },
    {
      "matrix": [
        1,
        0,
        0,
        0,
        0,
        0.9999500004166653,
        -0.009999833334166666,
        0,
        0,
        0.009999833334166666,
        0.9999500004166653,
        0,
        0,
        5.3,
        0,
        1
      ],
      "children": [
        3
      ]
    },
    {
      "matrix": [
        1,
        0,
        0,
        0,
        0,
        1,
        0,
        0,
        0,
        0,
        1,
        0,
        0,
        4.2,
        0,
        1
      ],
      "children": [
        0,
        4
      ]
    },
    {
      "matrix": [
        1,
        0,
        0,
        0,
        0,
        1,
        0,
        0,
        0,
        0,
        1,
        0,
        0,
        -3,
        0,
        1
      ],
      "children": [
        5
      ]
    },
    {
      "matrix": [
        1,
        0,
        0,
        0,
        0,
        1,
        0,
        0,
        0,
        0,
        1,
        0,
        3.061616997868383e-14,
        404.5084971874737,
        -293.8926261462366,
        1
      ],
      "name": "skyLight",
      "extensions": {
        "KHR_lights_punctual": {
          "light": 0
        }
      }
    }
  ],
  "bufferViews": [
    {
      "buffer": 0,
      "byteOffset": 0,
      "byteLength": 1728,
      "target": 34962,
      "byteStride": 12
    },
    {
      "buffer": 0,
      "byteOffset": 1728,
      "byteLength": 1728,
      "target": 34962,
      "byteStride": 12
    },
    {
      "buffer": 0,
      "byteOffset": 3456,
      "byteLength": 1728,
      "target": 34962,
      "byteStride": 12
    },
    {
      "buffer": 0,
      "byteOffset": 5184,
      "byteLength": 1152,
      "target": 34962,
      "byteStride": 8
    },
    {
      "buffer": 0,
      "byteOffset": 6336,
      "byteLength": 4320,
      "target": 34962,
      "byteStride": 12
    },
    {
      "buffer": 0,
      "byteOffset": 10656,
      "byteLength": 4320,
      "target": 34962,
      "byteStride": 12
    },
    {
      "buffer": 0,
      "byteOffset": 14976,
      "byteLength": 4320,
      "target": 34962,
      "byteStride": 12
    },
    {
      "buffer": 0,
      "byteOffset": 19296,
      "byteLength": 2880,
      "target": 34962,
      "byteStride": 8
    },
    {
      "buffer": 0,
      "byteOffset": 22176,
      "byteLength": 247176,
      "target": 34962,
      "byteStride": 12
    },
    {
      "buffer": 0,
      "byteOffset": 269352,
      "byteLength": 247176,
      "target": 34962,
      "byteStride": 12
    },
    {
      "buffer": 0,
      "byteOffset": 516528,
      "byteLength": 164784,
      "target": 34962,
      "byteStride": 8
    },
    {
      "buffer": 0,
      "byteOffset": 681312,
      "byteLength": 164784,
      "target": 34962,
      "byteStride": 8
    }
  ],
  "buffers": [
    {
      "byteLength": 846096,
      "uri": "data:application/octet-stream;base64,"
    }
  ],
  "accessors": [
    {
      "bufferView": 0,
      "componentType": 5126,
      "count": 144,
      "max": [
        1.3649998903274536,
        6.800000190734863,
        1
      ],
      "min": [
        -1.3649998903274536,
        -7.152557657263969e-9,
        -1
      ],
      "type": "VEC3"
    },
    {
      "bufferView": 1,
      "componentType": 5126,
      "count": 144,
      "max": [
        1,
        1,
        1
      ],
      "min": [
        -1,
        -1,
        -1
      ],
      "type": "VEC3"
    },
    {
      "bufferView": 2,
      "componentType": 5126,
      "count": 144,
      "max": [
        0.6549019813537598,
        0.47058823704719543,
        0.3764705955982208
      ],
      "min": [
        0.1568627506494522,
        0.1568627506494522,
        0.1568627506494522
      ],
      "type": "VEC3"
    },
    {
      "bufferView": 3,
      "componentType": 5126,
      "count": 144,
      "max": [
        1,
        1
      ],
      "min": [
        0,
        0
      ],
      "type": "VEC2"
    },
    {
      "bufferView": 4,
      "componentType": 5126,
      "count": 360,
      "max": [
        1.7179484367370605,
        0.4316856563091278,
        3.6011099815368652
      ],
      "min": [
        -3.5823144912719727,
        -3.1105263233184814,
        -1.5991506576538086
      ],
      "type": "VEC3"
    },
    {
      "bufferView": 5,
      "componentType": 5126,
      "count": 360,
      "max": [
        0.9449860453605652,
        0.9796026945114136,
        0.9124934673309326
      ],
      "min": [
        -0.9449860453605652,
        -0.9796026945114136,
        -0.9124934673309326
      ],
      "type": "VEC3"
    },
    {
      "bufferView": 6,
      "componentType": 5126,
      "count": 360,
      "max": [
        0.6549019813537598,
        0.47058823704719543,
        0.3764705955982208
      ],
      "min": [
        0.1882352977991104,
        0.21960784494876862,
        0.15294118225574493
      ],
      "type": "VEC3"
    },
    {
      "bufferView": 7,
      "componentType": 5126,
      "count": 360,
      "max": [
        1,
        1
      ],
      "min": [
        0,
        0
      ],
      "type": "VEC2"
    },
    {
      "bufferView": 8,
      "componentType": 5126,
      "count": 20598,
      "max": [
        6182,
        1091,
        877
      ],
      "min": [
        -3768,
        -1867,
        -874
      ],
      "type": "VEC3"
    },
    {
      "bufferView": 9,
      "componentType": 5126,
      "count": 20598,
      "max": [
        1,
        1,
        1
      ],
      "min": [
        -1,
        -1,
        -1
      ],
      "type": "VEC3"
    },
    {
      "bufferView": 10,
      "componentType": 5126,
      "count": 20598,
      "max": [
        0.9950000047683716,
        0.9959999918937683
      ],
      "min": [
        0.008999999612569809,
        0.00800000037997961
      ],
      "type": "VEC2"
    },
    {
      "bufferView": 11,
      "componentType": 5126,
      "count": 20598,
      "max": [
        0.9950000047683716,
        0.9959999918937683
      ],
      "min": [
        0.008999999612569809,
        0.00800000037997961
      ],
      "type": "VEC2"
    }
  ],
  "materials": [
    {
      "pbrMetallicRoughness": {
        "metallicFactor": 0.5,
        "roughnessFactor": 0.5
      }
    },
    {
      "pbrMetallicRoughness": {
        "metallicFactor": 0.5,
        "roughnessFactor": 0.5,
        "baseColorTexture": {
          "index": 0
        }
      }
    }
  ],
  "meshes": [
    {
      "primitives": [
        {
          "mode": 4,
          "attributes": {
            "POSITION": 0,
            "NORMAL": 1,
            "COLOR_0": 2,
            "TEXCOORD_0": 3
          },
          "material": 0
        }
      ]
    },
    {
      "primitives": [
        {
          "mode": 4,
          "attributes": {
            "POSITION": 4,
            "NORMAL": 5,
            "COLOR_0": 6,
            "TEXCOORD_0": 7
          },
          "material": 0
        }
      ]
    },
    {
      "primitives": [
        {
          "mode": 4,
          "attributes": {
            "POSITION": 8,
            "NORMAL": 9,
            "TEXCOORD_0": 10,
            "TEXCOORD_1": 11
          },
          "material": 1
        }
      ]
    }
  ],
  "textures": [
    {
      "sampler": 0,
      "source": 0
    }
  ],
  "samplers": [
    {
      "magFilter": 9729,
      "minFilter": 9729,
      "wrapS": 10497,
      "wrapT": 10497
    }
  ],
  "images": [
    {
      "mimeType": "image/png",
      "uri": "data:image/png;base64,"
    }
  ],
  "extensions": {
    "KHR_lights_punctual": {
      "lights": [
        {
          "name": "skyLight",
          "color": [
            0.9490196078431372,
            0.9725490196078431,
            0.9882352941176471
          ],
          "intensity": 1.2,
          "type": "directional"
        }
      ]
    }
  },
  "extensionsUsed": [
    "KHR_lights_punctual"
  ]
}