{
  "asset": {
    "version": "2.0",
    "generator": "THREE.GLTFExporter"
  },
  "scenes": [
    {
      "nodes": [
        6,
        7
      ]
    }
  ],
  "scene": 0,
  "nodes": [
    {
      "mesh": 0
    },
    {
      "mesh": 1
    },
    {
      "matrix": [
        1.2765290778642347e-19,
        0,
        -0.000574897587939697,
        0,
        0,
        0.000574897587939697,
        0,
        0,
        0.000574897587939697,
        0,
        1.2765290778642347e-19,
        0,
        0,
        0,
        0,
        1
      ],
      "mesh": 2
    },
    {
      "matrix": [
        0.9999681312301185,
        0.007982552712468045,
        0.00012400135810209964,
        0,
        -0.007983515775906135,
        0.9998475035801618,
        0.015531679251586316,
        0,
        2.710505431213761e-20,
        -0.015532174242873018,
        0.9998793685056658,
        0,
        0.85,
        -0.8036845884283003,
        -3,
        1
      ],
      "children": [
        1,
        2
      ]
    },
    {
      "matrix": [
        1,
        0,
        0,
        0,
        0,
        1,
        0,
        0,
        0,
        0,
        1,
        0,
        0,
        5.3,
        0,
        1
      ],
      "children": [
        3
      ]
    },
    {
      "matrix": [
        1,
        0,
        0,
        0,
        0,
        1,
        0,
        0,
        0,
        0,
        1,
        0,
        0,
        4.2,
        0,
        1
      ],
      "children": [
        0,
        4
      ]
    },
    {
      "matrix": [
        1,
        0,
        0,
        0,
        0,
        1,
        0,
        0,
        0,
        0,
        1,
        0,
        0,
        -3,
        0,
        1
      ],
      "children": [
        5
      ]
    },
    {
      "matrix": [
        1,
        0,
        0,
        0,
        0,
        1,
        0,
        0,
        0,
        0,
        1,
        0,
        3.061616997868383e-14,
        404.5084971874737,
        -293.8926261462366,
        1
      ],
      "name": "skyLight",
      "extensions": {
        "KHR_lights_punctual": {
          "light": 0
        }
      }
    }
  ],
  "bufferViews": [
    {
      "buffer": 0,
      "byteOffset": 0,
      "byteLength": 1728,
      "target": 34962,
      "byteStride": 12
    },
    {
      "buffer": 0,
      "byteOffset": 1728,
      "byteLength": 1728,
      "target": 34962,
      "byteStride": 12
    },
    {
      "buffer": 0,
      "byteOffset": 3456,
      "byteLength": 1728,
      "target": 34962,
      "byteStride": 12
    },
    {
      "buffer": 0,
      "byteOffset": 5184,
      "byteLength": 1152,
      "target": 34962,
      "byteStride": 8
    },
    {
      "buffer": 0,
      "byteOffset": 6336,
      "byteLength": 4320,
      "target": 34962,
      "byteStride": 12
    },
    {
      "buffer": 0,
      "byteOffset": 10656,
      "byteLength": 4320,
      "target": 34962,
      "byteStride": 12
    },
    {
      "buffer": 0,
      "byteOffset": 14976,
      "byteLength": 4320,
      "target": 34962,
      "byteStride": 12
    },
    {
      "buffer": 0,
      "byteOffset": 19296,
      "byteLength": 2880,
      "target": 34962,
      "byteStride": 8
    },
    {
      "buffer": 0,
      "byteOffset": 22176,
      "byteLength": 96048,
      "target": 34962,
      "byteStride": 12
    },
    {
      "buffer": 0,
      "byteOffset": 118224,
      "byteLength": 96048,
      "target": 34962,
      "byteStride": 12
    },
    {
      "buffer": 0,
      "byteOffset": 214272,
      "byteLength": 64032,
      "target": 34962,
      "byteStride": 8
    },
    {
      "buffer": 0,
      "byteOffset": 278304,
      "byteLength": 64032,
      "target": 34962,
      "byteStride": 8
    }
  ],
  "buffers": [
    {
      "byteLength": 342336,
      "uri": "data:application/octet-stream;base64,"
    }
  ],
  "accessors": [
    {
      "bufferView": 0,
      "componentType": 5126,
      "count": 144,
      "max": [
        1.3649998903274536,
        6.800000190734863,
        1
      ],
      "min": [
        -1.3649998903274536,
        -7.152557657263969e-9,
        -1
      ],
      "type": "VEC3"
    },
    {
      "bufferView": 1,
      "componentType": 5126,
      "count": 144,
      "max": [
        1,
        1,
        1
      ],
      "min": [
        -1,
        -1,
        -1
      ],
      "type": "VEC3"
    },
    {
      "bufferView": 2,
      "componentType": 5126,
      "count": 144,
      "max": [
        0.6549019813537598,
        0.47058823704719543,
        0.5098039507865906
      ],
      "min": [
        0.18431372940540314,
        0.27843138575553894,
        0.19607843458652496
      ],
      "type": "VEC3"
    },
    {
      "bufferView": 3,
      "componentType": 5126,
      "count": 144,
      "max": [
        1,
        1
      ],
      "min": [
        0,
        0
      ],
      "type": "VEC2"
    },
    {
      "bufferView": 4,
      "componentType": 5126,
      "count": 360,
      "max": [
        1.864400863647461,
        0.6286166906356812,
        3.8593881130218506
      ],
      "min": [
        -3.4143738746643066,
        -3.021718978881836,
        -1.608001947402954
      ],
      "type": "VEC3"
    },
    {
      "bufferView": 5,
      "componentType": 5126,
      "count": 360,
      "max": [
        0.898768424987793,
        0.9937649369239807,
        0.8837119936943054
      ],
      "min": [
        -0.898768424987793,
        -0.9937649369239807,
        -0.8837119936943054
      ],
      "type": "VEC3"
    },
    {
      "bufferView": 6,
      "componentType": 5126,
      "count": 360,
      "max": [
        0.6549019813537598,
        0.47058823704719543,
        0.5098039507865906
      ],
      "min": [
        0.10196078568696976,
        0.16862745583057404,
        0.22745098173618317
      ],
      "type": "VEC3"
    },
    {
      "bufferView": 7,
      "componentType": 5126,
      "count": 360,
      "max": [
        1,
        1
      ],
      "min": [
        0,
        0
      ],
      "type": "VEC2"
    },
    {
      "bufferView": 8,
      "componentType": 5126,
      "count": 8004,
      "max": [
        3246,
        1087,
        429
      ],
      "min": [
        -6704,
        -4321,
        -553
      ],
      "type": "VEC3"
    },
    {
      "bufferView": 9,
      "componentType": 5126,
      "count": 8004,
      "max": [
        1,
        1,
        1
      ],
      "min": [
        -1,
        -1,
        -1
      ],
      "type": "VEC3"
    },
    {
      "bufferView": 10,
      "componentType": 5126,
      "count": 8004,
      "max": [
        0.9919999837875366,
        0.9940000176429749
      ],
      "min": [
        0.008999999612569809,
        0.007000000216066837
      ],
      "type": "VEC2"
    },
    {
      "bufferView": 11,
      "componentType": 5126,
      "count": 8004,
      "max": [
        0.9919999837875366,
        0.9940000176429749
      ],
      "min": [
        0.008999999612569809,
        0.007000000216066837
      ],
      "type": "VEC2"
    }
  ],
  "materials": [
    {
      "pbrMetallicRoughness": {
        "metallicFactor": 0.5,
        "roughnessFactor": 0.5
      }
    },
    {
      "pbrMetallicRoughness": {
        "metallicFactor": 0.5,
        "roughnessFactor": 0.5,
        "baseColorTexture": {
          "index": 0
        }
      }
    }
  ],
  "meshes": [
    {
      "primitives": [
        {
          "mode": 4,
          "attributes": {
            "POSITION": 0,
            "NORMAL": 1,
            "COLOR_0": 2,
            "TEXCOORD_0": 3
          },
          "material": 0
        }
      ]
    },
    {
      "primitives": [
        {
          "mode": 4,
          "attributes": {
            "POSITION": 4,
            "NORMAL": 5,
            "COLOR_0": 6,
            "TEXCOORD_0": 7
          },
          "material": 0
        }
      ]
    },
    {
      "primitives": [
        {
          "mode": 4,
          "attributes": {
            "POSITION": 8,
            "NORMAL": 9,
            "TEXCOORD_0": 10,
            "TEXCOORD_1": 11
          },
          "material": 1
        }
      ]
    }
  ],
  "textures": [
    {
      "sampler": 0,
      "source": 0
    }
  ],
  "samplers": [
    {
      "magFilter": 9729,
      "minFilter": 9729,
      "wrapS": 10497,
      "wrapT": 10497
    }
  ],
  "images": [
    {
      "mimeType": "image/png",
      "uri": "data:image/png;base64,"
    }
  ],
  "extensions": {
    "KHR_lights_punctual": {
      "lights": [
        {
          "name": "skyLight",
          "color": [
            0.9490196078431372,
            0.9725490196078431,
            0.9882352941176471
          ],
          "intensity": 1.2,
          "type": "directional"
        }
      ]
    }
  },
  "extensionsUsed": [
    "KHR_lights_punctual"
  ]
}